<?xml version="1.0" encoding="UTF-8" standalone="no"?><!DOCTYPE svg PUBLIC "-//W3C//DTD SVG 1.1//EN" "http://www.w3.org/Graphics/SVG/1.1/DTD/svg11.dtd"><svg width="100%" height="100%" viewBox="0 0 188 139" version="1.1" xmlns="http://www.w3.org/2000/svg" xmlns:xlink="http://www.w3.org/1999/xlink" xml:space="preserve" xmlns:serif="http://www.serif.com/" style="fill-rule:evenodd;clip-rule:evenodd;stroke-linejoin:round;stroke-miterlimit:2;"><g><path d="M171.586,43.295c-4.273,0 -7.302,-3.108 -7.302,-7.224c-0,-4.118 3.029,-7.225 7.302,-7.225c4.272,0 7.302,3.107 7.302,7.225c-0,4.116 -3.03,7.224 -7.302,7.224m-0,18.311c-4.273,0 -7.302,-3.108 -7.302,-7.224c-0,-4.118 3.029,-7.225 7.302,-7.225c4.272,0 7.302,3.107 7.302,7.225c-0,4.116 -3.03,7.224 -7.302,7.224m6.493,14.333c-0,0.613 -0.497,1.11 -1.11,1.11l-29.461,0c-0.613,0 -1.111,-0.497 -1.111,-1.11l-0,-9.432c-0,-0.613 0.498,-1.11 1.111,-1.11l29.461,0c0.613,0 1.11,0.497 1.11,1.11l-0,9.432Zm-24.43,-28.782c4.271,0 7.301,3.107 7.301,7.225c-0,4.116 -3.03,7.224 -7.301,7.224c-4.273,0 -7.303,-3.108 -7.303,-7.224c-0,-4.118 3.03,-7.225 7.303,-7.225m-11.255,11.966c-0,0.516 -0.417,0.933 -0.933,0.933l-29.816,0c-0.515,0 -0.932,-0.417 -0.932,-0.933l-0,-9.786c-0,-0.515 0.417,-0.933 0.932,-0.933l29.816,0c0.516,0 0.933,0.418 0.933,0.933l-0,9.786Zm11.255,-30.277c4.271,0 7.301,3.107 7.301,7.225c-0,4.116 -3.03,7.224 -7.301,7.224c-4.273,0 -7.303,-3.108 -7.303,-7.224c-0,-4.118 3.03,-7.225 7.303,-7.225m31.364,-28.846l-76.278,0c-1.579,0 -2.86,1.28 -2.86,2.86l-0,19.821c0.117,0.223 0.343,0.379 0.612,0.379l9.745,0c0.386,0 0.698,0.313 0.698,0.699l-0,14.037c-0,0.386 -0.312,0.699 -0.698,0.699l-9.745,0c-0.269,0 -0.495,0.156 -0.612,0.379l-0,28.6c0.341,2.099 1.761,3.078 4.426,3.078l5.831,0c0.386,0 0.698,0.313 0.698,0.698l-0,13.297l0.004,0l-0,2.152l68.179,0c1.579,0 2.86,-1.28 2.86,-2.86l-0,-80.979c-0,-1.58 -1.281,-2.86 -2.86,-2.86" style="fill:#b2292e;fill-rule:nonzero;"/><path d="M5.721,93.142c-2.597,0 -5.226,1.779 -5.226,5.18c-0,3.401 2.629,5.18 5.226,5.18c2.597,0 5.225,-1.779 5.225,-5.18c-0,-3.401 -2.628,-5.18 -5.225,-5.18" style="fill:#fff;fill-rule:nonzero;"/><path d="M10.282,105.709l-9.124,0l0,31.632l9.124,0l0,-31.632Z" style="fill:#fff;fill-rule:nonzero;"/><path d="M31.607,105.347c-3.359,0 -6.224,1.103 -9.105,3.541l-0.28,-2.342l-0.093,-0.777l-8.239,0l0,31.572l9.063,0l0,-16.087c0,-4.246 2.89,-7.448 6.723,-7.448c4.645,0 6.3,3.66 6.3,7.086l0,16.449l9.124,0l0,-16.51c0,-4.672 -1.353,-8.616 -3.913,-11.405c-2.415,-2.63 -5.817,-4.079 -9.58,-4.079" style="fill:#fff;fill-rule:nonzero;"/><path d="M72.727,121.556c-0,5.167 -3.898,7.87 -7.749,7.87c-4.385,-0 -7.568,-3.31 -7.568,-7.87c-0,-4.598 3.112,-7.809 7.568,-7.809c4.418,-0 7.749,3.357 7.749,7.809m9.606,-28.157l-9.123,-0l-0,14.954c-2.535,-2.205 -6.473,-3.247 -8.896,-3.247c-4.654,-0 -8.611,1.447 -11.444,4.185c-2.998,2.898 -4.583,7.139 -4.583,12.265c-0,9.839 6.513,16.45 16.208,16.45c2.707,-0 6.269,-0.644 8.969,-3.439l0.234,1.997l0.092,0.778l8.543,-0l-0,-43.943Z" style="fill:#fff;fill-rule:nonzero;"/><path d="M109.115,121.616c-0,3.917 -2.228,7.87 -7.206,7.87c-4.977,0 -7.206,-3.953 -7.206,-7.87c-0,-3.819 2.256,-7.93 7.206,-7.93c4.511,0 7.206,4.032 7.206,7.93m-7.266,-16.389c-4.78,0 -8.891,1.673 -11.887,4.839c-2.825,2.986 -4.382,7.088 -4.382,11.55c-0,4.502 1.543,8.612 4.345,11.573c2.981,3.151 7.125,4.817 11.984,4.817c4.862,0 9.016,-1.665 12.013,-4.815c2.822,-2.966 4.377,-7.076 4.377,-11.575c-0,-4.452 -1.591,-8.556 -4.478,-11.556c-3,-3.117 -7.252,-4.833 -11.972,-4.833" style="fill:#fff;fill-rule:nonzero;"/><path d="M139.011,129.006l-0.317,-0.971l-0.914,0.457c-1.016,0.509 -2.2,0.812 -3.166,0.812c-1.951,0 -2.982,-1.156 -2.982,-3.343l0,-11.973l8.267,0l0,-8.098l-8.207,0l0,-8.547l-0.973,0.104l-7.363,0.784l-0.787,0.084l0,7.575l-5.552,0l0,8.098l5.552,0l0,11.973c0,7.36 4.102,11.754 10.972,11.754c0.205,0 0.413,-0.004 0.623,-0.012c2.332,-0.063 4.185,-0.448 6.389,-1.33l0.766,-0.306l-0.256,-0.785l-2.052,-6.276Z" style="fill:#fff;fill-rule:nonzero;"/><path d="M152.162,117.236c1.183,-2.579 3.699,-4.032 7.071,-4.032c2.136,-0 5.671,0.551 6.653,4.032l-13.724,-0Zm6.83,-12.311c-4.924,-0 -9.125,1.608 -12.151,4.65c-2.928,2.944 -4.541,7.135 -4.541,11.8c0,4.969 1.588,9.166 4.592,12.137c3.052,3.019 7.423,4.615 12.643,4.615c5.255,-0 10.4,-1.954 13.427,-5.098l0.604,-0.626l-0.619,-0.611l-4.707,-4.647l-0.634,-0.625l-0.618,0.64c-1.173,1.215 -4.142,2.507 -7.332,2.507c-4.033,-0 -6.918,-1.727 -7.784,-4.575l22.948,-0l0.075,-0.799c0.586,-6.26 -0.721,-11.344 -3.78,-14.702c-2.78,-3.052 -6.972,-4.666 -12.123,-4.666" style="fill:#fff;fill-rule:nonzero;"/><path d="M187.873,93.399l-9.064,0l0,44.305l9.064,0l0,-44.305Z" style="fill:#fff;fill-rule:nonzero;"/><path d="M11.042,0.353c6.649,0 11.042,4.036 11.042,10.329c-0,6.293 -4.393,10.329 -11.042,10.329c-6.649,0 -11.042,-4.036 -11.042,-10.329c-0,-6.293 4.393,-10.329 11.042,-10.329" style="fill:#fff;fill-rule:nonzero;"/><path d="M1.069,86.071l-0,-61.575c-0,-0.57 0.462,-1.032 1.032,-1.032l17.882,0c0.57,0 1.033,0.462 1.033,1.032l-0,61.575c-0,0.57 -0.463,1.032 -1.033,1.032l-17.882,0c-0.57,0 -1.032,-0.462 -1.032,-1.032" style="fill:#fff;fill-rule:nonzero;"/><path d="M65.543,60.128c0,7.836 -5.224,11.754 -11.161,11.754c-7.836,-0 -11.398,-4.987 -11.398,-12.11l0,-8.074c0,-7.362 3.562,-12.111 11.398,-12.111c5.937,-0 11.161,3.919 11.161,11.755l0,8.786Zm19.6,-21.229l-10.075,-0c-0.385,-0 -0.698,-0.313 -0.698,-0.698l0,-14.038c0,-0.386 0.313,-0.699 0.698,-0.699l10.075,-0c0.129,-0 0.243,-0.044 0.346,-0.105l0,-22.121c0,-0.59 -0.478,-1.068 -1.068,-1.068l-17.81,-0c-0.59,-0 -1.068,0.478 -1.068,1.068l0,26.085c0,0.898 -1.045,1.405 -1.735,0.831c-3.138,-2.615 -8.252,-4.951 -14.412,-4.951c-17.572,-0 -26.358,13.298 -26.358,27.427l0,10.21c0,14.129 8.786,27.427 26.358,27.427c6.757,-0 12.327,-2.82 15.303,-5.702c0.67,-0.648 1.794,-0.148 1.794,0.784l0,2.425c0,0.59 0.478,1.068 1.068,1.068l16.86,-0c0.59,-0 1.068,-0.478 1.068,-1.068l0,-46.77c-0.103,-0.061 -0.217,-0.105 -0.346,-0.105" style="fill:#fff;fill-rule:nonzero;"/></g></svg>