<?xml version="1.0" encoding="UTF-8" standalone="no"?><!DOCTYPE svg PUBLIC "-//W3C//DTD SVG 1.1//EN" "http://www.w3.org/Graphics/SVG/1.1/DTD/svg11.dtd"><svg width="100%" height="100%" viewBox="0 0 1716 763" version="1.1" xmlns="http://www.w3.org/2000/svg" xmlns:xlink="http://www.w3.org/1999/xlink" xml:space="preserve" xmlns:serif="http://www.serif.com/" style="fill-rule:evenodd;clip-rule:evenodd;stroke-linejoin:round;stroke-miterlimit:2;"><rect id="Mesa-de-trabajo1" serif:id="Mesa de trabajo1" x="0" y="0" width="1715.69" height="763" style="fill:none;"/><clipPath id="_clip1"><rect x="0" y="0" width="1715.69" height="763"/></clipPath><g clip-path="url(#_clip1)"><g><g><g><path d="M796.593,381.366c0,28.493 -38.458,52.288 -44.518,78.946c-6.259,27.53 17.92,65.613 5.939,90.45c-12.18,25.245 -57.152,30.012 -74.47,51.699c-17.402,21.789 -12.106,66.674 -33.895,84.075c-21.683,17.314 -64.241,2.229 -89.486,14.409c-24.838,11.981 -39.492,54.775 -67.021,61.025c-26.658,6.065 -58.366,-25.991 -86.859,-25.991c-28.493,0 -60.201,32.056 -86.864,25.991c-27.529,-6.254 -42.183,-49.044 -67.016,-61.025c-25.249,-12.18 -67.808,2.9 -89.49,-14.414c-21.789,-17.401 -16.494,-62.281 -33.895,-84.074c-17.314,-21.683 -62.291,-26.455 -74.471,-51.7c-11.976,-24.837 12.203,-62.915 5.944,-90.445c-6.06,-26.662 -44.518,-50.453 -44.518,-78.946c0,-28.492 38.458,-52.283 44.518,-78.946c6.259,-27.524 -17.92,-65.612 -5.939,-90.449c12.18,-25.245 57.152,-30.008 74.47,-51.695c17.402,-21.789 12.102,-66.673 33.895,-84.075c21.683,-17.313 64.241,-2.228 89.491,-14.408c24.833,-11.981 39.487,-54.771 67.016,-61.031c26.658,-6.059 58.366,25.996 86.859,25.996c28.493,-0 60.201,-32.055 86.859,-25.996c27.529,6.26 42.183,49.05 67.025,61.031c25.241,12.18 67.799,-2.901 89.486,14.413c21.789,17.401 16.494,62.281 33.895,84.075c17.314,21.682 62.286,26.449 74.466,51.69c11.981,24.837 -12.198,62.925 -5.939,90.449c6.06,26.663 44.518,50.454 44.518,78.946" style="fill:#00205c;fill-rule:nonzero;"/><path d="M326.438,18.53l-1.227,0l-1.2,0.26c-7.7,1.649 -14.96,9.511 -27.381,25.426c-10.346,13.264 -21.034,26.964 -36.17,34.265c-13.751,6.635 -29.447,7.191 -43.073,7.191c-2.071,-0 -4.16,-0.014 -6.24,-0.033l-0.723,-0.005c-2.196,-0.023 -4.415,-0.037 -6.621,-0.037c-19.12,-0 -25.398,1.946 -29.331,5.092c-5.74,4.582 -8.645,14.228 -12.982,34.113c-3.609,16.576 -7.348,33.714 -17.99,47.038c-10.572,13.246 -26.403,20.654 -41.706,27.821c-18.513,8.664 -27.32,13.658 -30.554,20.367l-0.139,0.296c-2.636,5.894 -1.909,13.876 3.257,35.605c3.947,16.604 8.029,33.779 4.202,50.601c-3.693,16.248 -14.608,29.647 -25.162,42.596c-13.069,16.035 -18.893,24.494 -18.893,32.241c0,7.746 5.828,16.201 18.884,32.227c10.563,12.963 21.478,26.357 25.176,42.609c3.817,16.813 -0.26,33.988 -4.207,50.592c-4.605,19.38 -6.167,29.119 -3.253,35.623l0.065,0.144l0.074,0.148c3.23,6.695 12.037,11.699 30.55,20.367c15.303,7.163 31.129,14.575 41.706,27.821c10.638,13.315 14.372,30.453 17.986,47.025c4.341,19.898 7.246,29.54 12.986,34.126c3.947,3.141 10.23,5.087 29.364,5.087c2.186,0 4.383,-0.018 6.588,-0.037c2.316,-0.018 4.628,-0.037 6.921,-0.037c13.645,0 29.355,0.556 43.11,7.191c15.141,7.306 25.829,21.005 36.161,34.251c12.648,16.211 19.532,23.721 26.913,25.398l1.269,0.287l1.297,0c7.872,0 17.953,-4.67 31.333,-11.267c15.447,-7.612 31.398,-15.479 48.855,-15.479c17.457,0 33.413,7.867 48.836,15.474c13.83,6.815 23.457,11.286 31.004,11.286c1.195,0 1.784,-0.106 1.886,-0.12l0.528,-0.07l0.523,-0.116c7.362,-1.677 14.247,-9.187 26.881,-25.388c10.345,-13.255 21.034,-26.955 36.17,-34.256c13.746,-6.635 29.447,-7.186 43.082,-7.186c2.302,0 4.619,0.018 6.935,0.037c2.215,0.018 4.42,0.037 6.621,0.037c19.125,0 25.407,-1.951 29.341,-5.092c5.735,-4.582 8.64,-14.223 12.977,-34.103c3.618,-16.586 7.357,-33.728 17.999,-47.048c10.572,-13.246 26.398,-20.658 41.706,-27.821c18.518,-8.673 27.32,-13.672 30.55,-20.367l0.074,-0.153l0.069,-0.148c2.636,-5.888 1.909,-13.876 -3.257,-35.6c-3.947,-16.609 -8.029,-33.779 -4.202,-50.606c3.693,-16.252 14.608,-29.651 25.166,-42.605c13.065,-16.039 18.889,-24.489 18.889,-32.231c0,-7.747 -5.828,-16.202 -18.889,-32.227c-10.558,-12.963 -21.473,-26.362 -25.171,-42.61c-3.817,-16.813 0.26,-33.983 4.203,-50.592c5.17,-21.733 5.897,-29.716 3.257,-35.618l-0.07,-0.153l-0.069,-0.148c-3.234,-6.695 -12.037,-11.694 -30.546,-20.358c-15.307,-7.162 -31.133,-14.575 -41.71,-27.816c-10.642,-13.325 -14.376,-30.462 -17.995,-47.039c-4.336,-19.889 -7.241,-29.53 -12.981,-34.117c-3.943,-3.146 -10.225,-5.092 -29.355,-5.092c-2.196,0 -4.406,0.019 -6.616,0.037l-0.639,0.005c-2.094,0.019 -4.188,0.037 -6.269,0.037c-13.644,0 -29.345,-0.556 -43.1,-7.195c-15.136,-7.301 -25.829,-21.001 -36.165,-34.251c-12.648,-16.216 -19.533,-23.721 -26.913,-25.398l-1.27,-0.288l-1.297,0c-7.867,0 -17.948,4.67 -31.328,11.268c-15.442,7.612 -31.398,15.478 -48.855,15.478c-17.457,0 -33.413,-7.862 -48.841,-15.469c-13.848,-6.829 -23.461,-11.291 -31.004,-11.291m0,11.583c5.412,0 16.762,5.596 25.88,10.09c15.845,7.816 33.807,16.67 53.965,16.67c20.153,0 38.116,-8.854 53.96,-16.67c9.113,-4.489 20.446,-10.076 26.204,-10.076l0.019,0c4.605,1.047 14.46,13.676 20.348,21.223c10.637,13.635 22.692,29.086 40.265,37.565c15.952,7.7 33.209,8.344 48.132,8.344c2.331,0 4.675,-0.024 7.019,-0.042c2.173,-0.019 4.346,-0.037 6.505,-0.037c16.466,0 20.932,1.603 22.127,2.557c3.498,2.794 7.01,18.889 8.895,27.539c3.716,17.04 7.932,36.359 20.256,51.796c12.263,15.354 30.11,23.712 45.848,31.078c8.052,3.772 23.044,10.786 25.027,14.905c1.798,4.012 -1.941,19.745 -3.947,28.196c-4.054,17.063 -8.65,36.406 -4.23,55.846c4.295,18.903 16.618,34.02 27.483,47.358c6.092,7.473 16.285,19.982 16.285,24.912c0,4.929 -10.193,17.438 -16.285,24.911c-10.869,13.339 -23.188,28.456 -27.483,47.359c-4.42,19.444 0.171,38.787 4.23,55.85c2.006,8.451 5.745,24.184 3.952,28.187c-1.988,4.124 -16.98,11.138 -25.032,14.909c-15.743,7.371 -33.589,15.729 -45.848,31.083c-12.329,15.437 -16.54,34.752 -20.26,51.801c-1.886,8.645 -5.398,24.74 -8.896,27.534c-1.195,0.959 -5.656,2.557 -22.108,2.557c-2.168,0 -4.341,-0.018 -6.523,-0.037c-2.345,-0.018 -4.694,-0.037 -7.033,-0.037c-14.914,0 -32.162,0.64 -48.109,8.335c-17.582,8.483 -29.637,23.934 -40.275,37.564c-5.883,7.547 -15.738,20.177 -20.315,21.219c-0.005,0 -0.116,0.019 -0.371,0.019c-5.411,0 -16.762,-5.597 -25.88,-10.091c-15.844,-7.811 -33.807,-16.669 -53.96,-16.669c-20.158,0 -38.115,8.858 -53.965,16.669c-9.108,4.49 -20.441,10.077 -26.199,10.077l-0.024,0c-4.6,-1.047 -14.454,-13.677 -20.343,-21.224c-10.637,-13.635 -22.692,-29.081 -40.265,-37.559c-15.956,-7.7 -33.214,-8.344 -48.142,-8.344c-2.33,0 -4.67,0.018 -7.014,0.037c-2.168,0.018 -4.341,0.037 -6.495,0.037c-16.475,0 -20.937,-1.603 -22.132,-2.558c-3.503,-2.793 -7.01,-18.888 -8.9,-27.533c-3.716,-17.045 -7.927,-36.36 -20.251,-51.797c-12.263,-15.354 -30.105,-23.712 -45.848,-31.083c-8.056,-3.771 -23.044,-10.79 -25.032,-14.904c-1.797,-4.012 1.942,-19.746 3.952,-28.196c4.054,-17.064 8.65,-36.406 4.23,-55.846c-4.299,-18.903 -16.618,-34.02 -27.487,-47.363c-6.088,-7.469 -16.281,-19.978 -16.281,-24.907c0,-4.93 10.188,-17.439 16.281,-24.912c10.869,-13.338 23.192,-28.455 27.487,-47.358c4.42,-19.44 -0.176,-38.783 -4.23,-55.846c-2.01,-8.455 -5.745,-24.189 -3.952,-28.192c1.988,-4.123 16.976,-11.142 25.032,-14.909c15.743,-7.371 33.585,-15.724 45.848,-31.082c12.324,-15.437 16.54,-34.752 20.256,-51.797c1.885,-8.65 5.397,-24.745 8.895,-27.538c1.195,-0.955 5.657,-2.553 22.099,-2.553c2.173,0 4.351,0.014 6.533,0.037c2.353,0.018 4.712,0.037 7.051,0.037c14.909,0 32.153,-0.644 48.104,-8.339c17.573,-8.479 29.628,-23.93 40.261,-37.565c5.889,-7.542 15.748,-20.176 20.686,-21.237" style="fill:#00aeef;fill-rule:nonzero;"/><path d="M708.994,381.613c0,167.187 -135.531,302.712 -302.713,302.712c-167.187,0 -302.718,-135.525 -302.718,-302.712c0,-167.181 135.531,-302.712 302.718,-302.712c167.182,0 302.713,135.531 302.713,302.712" style="fill:#fff;fill-rule:nonzero;"/><path d="M686.776,381.613c0,154.914 -125.584,280.499 -280.498,280.499c-154.914,0 -280.493,-125.585 -280.493,-280.499c0,-154.914 125.579,-280.498 280.493,-280.498c154.914,0 280.498,125.584 280.498,280.498" style="fill:#00205c;fill-rule:nonzero;"/><g><path d="M471.406,535.087c-3.583,0 -6.124,-2.607 -6.124,-6.059c0,-3.453 2.541,-6.059 6.124,-6.059c3.583,0 6.124,2.606 6.124,6.059c0,3.452 -2.541,6.059 -6.124,6.059m0,15.357c-3.583,0 -6.124,-2.606 -6.124,-6.059c0,-3.453 2.541,-6.059 6.124,-6.059c3.583,0 6.124,2.606 6.124,6.059c0,3.453 -2.541,6.059 -6.124,6.059m5.446,12.021c0,0.514 -0.417,0.931 -0.931,0.931l-24.709,0c-0.514,0 -0.931,-0.417 -0.931,-0.931l0,-7.91c0,-0.515 0.417,-0.932 0.931,-0.932l24.709,0c0.514,0 0.931,0.417 0.931,0.932l0,7.91Zm-20.49,-24.139c3.583,0 6.124,2.606 6.124,6.059c0,3.453 -2.541,6.059 -6.124,6.059c-3.583,0 -6.124,-2.606 -6.124,-6.059c0,-3.453 2.541,-6.059 6.124,-6.059m-9.439,10.036c0,0.432 -0.349,0.782 -0.782,0.782l-25.006,0c-0.432,0 -0.782,-0.35 -0.782,-0.782l0,-8.208c0,-0.432 0.35,-0.782 0.782,-0.782l25.006,0c0.433,0 0.782,0.35 0.782,0.782l0,8.208Zm9.439,-25.393c3.583,0 6.124,2.606 6.124,6.059c0,3.452 -2.541,6.059 -6.124,6.059c-3.583,0 -6.124,-2.607 -6.124,-6.059c0,-3.453 2.541,-6.059 6.124,-6.059m26.305,-24.193l-63.973,0c-1.324,0 -2.399,1.074 -2.399,2.399l0,16.624c0.099,0.186 0.288,0.317 0.513,0.317l8.174,0c0.323,0 0.586,0.263 0.586,0.586l0,11.774c0,0.323 -0.263,0.585 -0.586,0.585l-8.174,0c-0.225,0 -0.414,0.132 -0.513,0.318l0,23.987c0.286,1.76 1.477,2.581 3.712,2.581l4.891,0c0.323,0 0.585,0.262 0.585,0.586l0,11.151l0.004,0l0,1.805l57.18,0c1.325,0 2.399,-1.074 2.399,-2.398l0,-67.916c0,-1.325 -1.074,-2.399 -2.399,-2.399" style="fill:#fff;fill-rule:nonzero;"/><path d="M332.298,576.893c-2.178,0 -4.383,1.493 -4.383,4.345c0,2.852 2.205,4.344 4.383,4.344c2.177,0 4.382,-1.492 4.382,-4.344c0,-2.852 -2.205,-4.345 -4.382,-4.345" style="fill:#fff;fill-rule:nonzero;"/><rect x="328.472" y="587.433" width="7.651" height="26.53" style="fill:#fff;"/><path d="M354.008,587.129c-2.817,0 -5.219,0.925 -7.636,2.97l-0.234,-1.964l-0.078,-0.651l-6.911,0l0,26.478l7.601,0l0,-13.492c0,-3.561 2.425,-6.246 5.639,-6.246c3.896,0 5.284,3.07 5.284,5.942l0,13.796l7.652,0l0,-13.846c0,-3.919 -1.135,-7.226 -3.282,-9.566c-2.026,-2.206 -4.879,-3.421 -8.035,-3.421" style="fill:#fff;fill-rule:nonzero;"/><path d="M388.495,600.723c0,4.333 -3.27,6.6 -6.5,6.6c-3.677,0 -6.346,-2.776 -6.346,-6.6c0,-3.856 2.609,-6.549 6.346,-6.549c3.706,0 6.5,2.815 6.5,6.549m8.056,-23.615l-7.651,0l0,12.542c-2.126,-1.849 -5.429,-2.723 -7.461,-2.723c-3.904,0 -7.222,1.214 -9.598,3.51c-2.515,2.43 -3.844,5.987 -3.844,10.286c0,8.252 5.463,13.796 13.593,13.796c2.271,0 5.259,-0.54 7.522,-2.884l0.197,1.675l0.077,0.653l7.165,0l0,-36.855Z" style="fill:#fff;fill-rule:nonzero;"/><path d="M419.012,600.774c0,3.285 -1.868,6.6 -6.043,6.6c-4.175,0 -6.043,-3.315 -6.043,-6.6c0,-3.204 1.891,-6.651 6.043,-6.651c3.783,0 6.043,3.381 6.043,6.651m-6.093,-13.746c-4.01,0 -7.457,1.403 -9.97,4.059c-2.37,2.504 -3.675,5.944 -3.675,9.687c0,3.775 1.294,7.222 3.644,9.706c2.501,2.642 5.976,4.039 10.051,4.039c4.077,0 7.561,-1.396 10.075,-4.037c2.367,-2.488 3.67,-5.935 3.67,-9.708c0,-3.734 -1.333,-7.176 -3.755,-9.692c-2.516,-2.614 -6.082,-4.054 -10.04,-4.054" style="fill:#fff;fill-rule:nonzero;"/><path d="M444.086,606.972l-0.266,-0.815l-0.766,0.384c-0.852,0.426 -1.845,0.681 -2.655,0.681c-1.636,0 -2.501,-0.97 -2.501,-2.804l0,-10.042l6.933,0l0,-6.791l-6.883,0l0,-7.168l-0.817,0.086l-6.174,0.658l-0.66,0.071l0,6.353l-4.656,0l0,6.791l4.656,0l0,10.042c0,6.172 3.44,9.857 9.202,9.857c0.172,0 0.346,-0.003 0.522,-0.009c1.956,-0.053 3.511,-0.376 5.358,-1.115l0.643,-0.258l-0.215,-0.658l-1.721,-5.263Z" style="fill:#fff;fill-rule:nonzero;"/><path d="M455.116,597.1c0.992,-2.163 3.102,-3.382 5.93,-3.382c1.792,0 4.756,0.462 5.581,3.382l-11.511,0Zm5.728,-10.325c-4.129,0 -7.653,1.349 -10.191,3.9c-2.455,2.469 -3.808,5.984 -3.808,9.896c0,4.167 1.332,7.688 3.851,10.179c2.559,2.532 6.226,3.87 10.603,3.87c4.408,0 8.723,-1.638 11.262,-4.275l0.506,-0.525l-0.519,-0.512l-3.948,-3.897l-0.531,-0.525l-0.519,0.537c-0.984,1.019 -3.474,2.103 -6.149,2.103c-3.382,0 -5.802,-1.449 -6.529,-3.838l19.247,0l0.063,-0.669c0.491,-5.25 -0.605,-9.514 -3.17,-12.331c-2.332,-2.56 -5.848,-3.913 -10.168,-3.913" style="fill:#fff;fill-rule:nonzero;"/><rect x="477.465" y="577.108" width="7.601" height="37.159" style="fill:#fff;"/><path d="M336.761,499.072c5.576,0 9.26,3.386 9.26,8.663c0,5.278 -3.684,8.663 -9.26,8.663c-5.577,0 -9.261,-3.385 -9.261,-8.663c0,-5.277 3.684,-8.663 9.261,-8.663" style="fill:#fff;fill-rule:nonzero;"/><path d="M328.396,570.963l0,-51.642c0,-0.478 0.388,-0.866 0.866,-0.866l14.998,0c0.478,0 0.865,0.388 0.865,0.866l0,51.642c0,0.478 -0.387,0.865 -0.865,0.865l-14.998,0c-0.478,0 -0.866,-0.387 -0.866,-0.865" style="fill:#fff;fill-rule:nonzero;"/><path d="M382.47,549.204c0,6.572 -4.381,9.858 -9.36,9.858c-6.572,-0 -9.56,-4.182 -9.56,-10.157l0,-6.771c0,-6.174 2.988,-10.157 9.56,-10.157c4.979,-0 9.36,3.287 9.36,9.859l0,7.368Zm16.439,-17.804l-8.45,-0c-0.324,-0 -0.586,-0.262 -0.586,-0.586l0,-11.773c0,-0.323 0.262,-0.586 0.586,-0.586l8.45,-0c0.107,-0 0.203,-0.037 0.29,-0.088l0,-18.553c0,-0.495 -0.402,-0.895 -0.896,-0.895l-14.937,-0c-0.495,-0 -0.896,0.4 -0.896,0.895l0,21.878c0,0.752 -0.877,1.178 -1.455,0.696c-2.632,-2.193 -6.921,-4.152 -12.087,-4.152c-14.738,-0 -22.106,11.153 -22.106,23.002l0,8.564c0,11.849 7.368,23.002 22.106,23.002c5.667,-0 10.338,-2.365 12.835,-4.782c0.561,-0.544 1.503,-0.125 1.503,0.657l0,2.034c0,0.495 0.402,0.896 0.896,0.896l14.141,-0c0.494,-0 0.896,-0.401 0.896,-0.896l0,-39.225c-0.087,-0.051 -0.183,-0.088 -0.29,-0.088" style="fill:#fff;fill-rule:nonzero;"/></g><path d="M446.333,122.039c-2.921,-3.009 -7.701,-3.186 -10.798,-0.354c-4.957,4.692 -9.383,9.295 -13.72,14.163c-4.338,4.868 -8.586,9.737 -12.658,14.87c-5.222,6.55 -10.267,13.454 -14.959,20.447l-16.463,-19.739c-2.479,-2.921 -6.816,-3.629 -10.091,-1.504c-3.54,2.301 -4.514,7.081 -2.213,10.533c0,0 19.208,29.387 21.775,33.016c2.035,2.833 4.514,4.248 7.878,4.248c3.629,0 6.195,-1.416 8.497,-5.222c3.629,-6.196 12.304,-21.243 19.385,-31.245c3.54,-5.046 7.258,-9.914 11.153,-14.782c3.805,-4.78 7.966,-9.56 11.949,-13.808l0.178,-0.178c2.831,-2.92 2.831,-7.523 0.087,-10.444l0,-0.001Z" style="fill:#00aeef;fill-rule:nonzero;"/><path d="M789.501,316.263c0,-13.892 -11.279,-25.17 -25.171,-25.17l-716.094,-0c-13.892,-0 -25.171,11.278 -25.171,25.17l0,130.208c0,13.892 11.279,25.17 25.171,25.17l716.094,0c13.892,0 25.171,-11.278 25.171,-25.17l0,-130.208Z" style="fill:#fff;"/><path d="M806.283,316.263c0,-23.154 -18.798,-41.952 -41.953,-41.952l-716.094,-0c-23.155,-0 -41.953,18.798 -41.953,41.952l0,130.208c0,23.154 18.798,41.952 41.953,41.952l716.094,0c23.155,0 41.953,-18.798 41.953,-41.952l0,-130.208Zm-16.782,-0c0,-13.892 -11.279,-25.17 -25.171,-25.17l-716.094,-0c-13.892,-0 -25.171,11.278 -25.171,25.17l0,130.208c0,13.892 11.279,25.17 25.171,25.17l716.094,0c13.892,0 25.171,-11.278 25.171,-25.17l0,-130.208Z" style="fill:#00205c;"/><g><path d="M119.579,370.929c-2.571,-3.252 -5.635,-5.843 -9.189,-7.772c-3.555,-1.929 -7.073,-2.893 -10.552,-2.893c-4.009,-0 -7.658,1.002 -10.948,3.007c-3.291,2.004 -5.881,4.765 -7.772,8.282c-1.891,3.517 -2.837,7.431 -2.837,11.743c0,4.311 0.946,8.225 2.837,11.742c1.891,3.518 4.481,6.278 7.772,8.283c3.29,2.004 6.939,3.006 10.948,3.006c3.253,-0 6.656,-0.832 10.211,-2.496c3.555,-1.664 6.732,-3.933 9.53,-6.807l12.14,13.047c-4.311,4.539 -9.436,8.15 -15.373,10.835c-5.938,2.685 -11.818,4.028 -17.642,4.028c-7.867,-0 -14.977,-1.815 -21.33,-5.446c-6.354,-3.63 -11.346,-8.585 -14.976,-14.863c-3.631,-6.277 -5.446,-13.312 -5.446,-21.102c0,-7.715 1.853,-14.674 5.559,-20.876c3.706,-6.203 8.793,-11.081 15.26,-14.636c6.467,-3.555 13.709,-5.333 21.727,-5.333c5.899,-0 11.724,1.229 17.472,3.688c5.748,2.458 10.627,5.805 14.636,10.041l-12.027,14.522Z" style="fill:#00aeef;fill-rule:nonzero;"/><path d="M177.102,342.678c8.093,0 15.411,1.778 21.953,5.333c6.543,3.555 11.686,8.433 15.43,14.636c3.745,6.202 5.617,13.161 5.617,20.876c0,7.79 -1.872,14.825 -5.617,21.102c-3.744,6.278 -8.887,11.233 -15.43,14.863c-6.542,3.631 -13.86,5.446 -21.953,5.446c-8.093,0 -15.411,-1.796 -21.954,-5.389c-6.543,-3.593 -11.686,-8.547 -15.43,-14.863c-3.744,-6.316 -5.616,-13.369 -5.616,-21.159c0,-7.715 1.872,-14.674 5.616,-20.876c3.744,-6.203 8.887,-11.081 15.43,-14.636c6.543,-3.555 13.861,-5.333 21.954,-5.333Zm0.227,17.586c-3.934,0 -7.583,1.021 -10.949,3.063c-3.366,2.043 -6.032,4.86 -7.999,8.453c-1.966,3.593 -2.949,7.545 -2.949,11.856c0,4.387 1.002,8.377 3.006,11.97c2.005,3.592 4.671,6.429 7.999,8.509c3.328,2.08 6.958,3.12 10.892,3.12c3.933,0 7.544,-1.04 10.835,-3.12c3.29,-2.08 5.88,-4.917 7.771,-8.509c1.891,-3.593 2.837,-7.583 2.837,-11.97c0,-4.311 -0.946,-8.263 -2.837,-11.856c-1.891,-3.593 -4.481,-6.41 -7.771,-8.453c-3.291,-2.042 -6.902,-3.063 -10.835,-3.063Z" style="fill:#00aeef;fill-rule:nonzero;"/><path d="M284.772,343.926l19.287,0l0,79.533l-18.153,0l-36.079,-47.538l0,47.538l-19.401,0l0,-79.533l18.267,0l36.192,47.879l-0.113,-47.879Z" style="fill:#00aeef;fill-rule:nonzero;"/><path d="M319.603,343.926l59.451,0l-0.114,16.565l-38.575,0l0,17.699l35.625,0l0,16.565l-35.625,0l0,28.704l-20.762,0l0,-79.533Z" style="fill:#00aeef;fill-rule:nonzero;"/><rect x="388.47" y="343.926" width="20.762" height="79.533" style="fill:#00aeef;"/><path d="M483.093,423.459l-5.446,-14.068l-34.377,0l-5.56,14.068l-21.329,0l34.15,-79.533l21.33,0l33.356,79.533l-22.124,0Zm-33.583,-29.952l22.01,0l-10.891,-28.364l-11.119,28.364Z" style="fill:#00aeef;fill-rule:nonzero;"/><path d="M566.71,343.926l19.288,0l0,79.533l-18.153,0l-36.08,-47.538l0,47.538l-19.401,0l0,-79.533l18.267,0l36.192,47.879l-0.113,-47.879Z" style="fill:#00aeef;fill-rule:nonzero;"/><path d="M598.364,343.926l68.301,0l0,13.615l-41.979,49.24l42.66,0l0,16.678l-70.457,0l0,-13.501l41.979,-49.354l-40.504,0l0,-16.678Z" style="fill:#00aeef;fill-rule:nonzero;"/><path d="M736.667,423.459l-5.446,-14.068l-34.377,0l-5.559,14.068l-21.33,0l34.15,-79.533l21.33,0l33.356,79.533l-22.124,0Zm-33.583,-29.952l22.011,0l-10.892,-28.364l-11.119,28.364Z" style="fill:#00aeef;fill-rule:nonzero;"/></g><g><path d="M278.878,229.495c-2.56,-1.508 -5.279,-2.741 -8.156,-3.7c-2.877,-0.959 -5.278,-1.439 -7.204,-1.439c-1.522,0 -2.71,0.286 -3.564,0.857c-0.853,0.571 -1.26,1.404 -1.222,2.5c0.037,1.051 0.448,1.93 1.234,2.638c0.786,0.708 1.746,1.279 2.881,1.713c1.135,0.434 2.811,0.993 5.029,1.679c3.303,0.959 6.034,1.918 8.195,2.877c2.16,0.959 4.037,2.433 5.629,4.419c1.592,1.987 2.443,4.579 2.555,7.777c0.112,3.197 -0.621,5.926 -2.199,8.187c-1.578,2.261 -3.792,3.963 -6.64,5.105c-2.848,1.142 -6.042,1.713 -9.579,1.713c-3.896,0 -7.805,-0.697 -11.727,-2.09c-3.923,-1.393 -7.337,-3.3 -10.242,-5.721l4.427,-9.798c2.448,2.147 5.319,3.906 8.614,5.276c3.294,1.37 6.195,2.055 8.703,2.055c1.836,0 3.268,-0.342 4.297,-1.027c1.028,-0.686 1.519,-1.69 1.473,-3.015c-0.038,-1.096 -0.462,-2.01 -1.271,-2.741c-0.809,-0.73 -1.815,-1.313 -3.017,-1.747c-1.201,-0.434 -2.888,-0.948 -5.058,-1.541c-3.256,-0.914 -5.953,-1.839 -8.09,-2.775c-2.137,-0.936 -3.989,-2.352 -5.556,-4.248c-1.566,-1.896 -2.404,-4.419 -2.514,-7.571c-0.104,-2.969 0.578,-5.572 2.044,-7.811c1.467,-2.238 3.601,-3.962 6.403,-5.172c2.801,-1.211 6.082,-1.816 9.844,-1.816c3.403,0 6.779,0.491 10.127,1.473c3.348,0.982 6.305,2.295 8.87,3.94l-4.286,10.003Z" style="fill:#fff;fill-rule:nonzero;"/><path d="M289.322,215.038l37.146,0l0.349,10.003l-24.853,0l0.313,8.976l22.436,0l0.347,9.934l-22.433,0.069l0.316,9.044l25.525,0l0.349,10.003l-37.817,0l-1.678,-48.029Z" style="fill:#fff;fill-rule:nonzero;"/><path d="M334.663,215.038l12.292,0l1.304,37.341l19.95,0l0.373,10.688l-32.242,0l-1.677,-48.029Z" style="fill:#fff;fill-rule:nonzero;"/><path d="M372.48,215.038l12.292,0l1.304,37.341l19.95,0l0.373,10.688l-32.242,0l-1.677,-48.029Z" style="fill:#fff;fill-rule:nonzero;"/><path d="M432.706,214.285c4.792,0 9.162,1.073 13.11,3.22c3.949,2.146 7.097,5.093 9.444,8.838c2.348,3.746 3.603,7.948 3.765,12.607c0.165,4.704 -0.795,8.952 -2.879,12.743c-2.085,3.792 -5.025,6.783 -8.822,8.976c-3.797,2.192 -8.092,3.289 -12.883,3.289c-4.792,0 -9.162,-1.085 -13.111,-3.255c-3.95,-2.17 -7.099,-5.161 -9.449,-8.975c-2.35,-3.814 -3.607,-8.074 -3.771,-12.778c-0.163,-4.659 0.799,-8.861 2.885,-12.607c2.085,-3.745 5.028,-6.692 8.826,-8.838c3.799,-2.147 8.094,-3.22 12.885,-3.22Zm0.506,10.619c-2.329,0 -4.468,0.617 -6.418,1.85c-1.95,1.233 -3.469,2.935 -4.557,5.104c-1.089,2.17 -1.588,4.557 -1.497,7.16c0.093,2.649 0.77,5.059 2.033,7.229c1.262,2.169 2.901,3.882 4.915,5.138c2.014,1.256 4.185,1.884 6.514,1.884c2.329,0 4.445,-0.628 6.349,-1.884c1.904,-1.256 3.378,-2.969 4.422,-5.138c1.044,-2.17 1.519,-4.58 1.427,-7.229c-0.091,-2.603 -0.734,-4.99 -1.93,-7.16c-1.195,-2.169 -2.788,-3.871 -4.779,-5.104c-1.991,-1.233 -4.151,-1.85 -6.479,-1.85Z" style="fill:#fff;fill-rule:nonzero;"/><path d="M499.501,215.038c4.926,0 9.316,1.005 13.17,3.015c3.854,2.01 6.897,4.83 9.128,8.461c2.232,3.632 3.43,7.8 3.594,12.504c0.164,4.705 -0.753,8.884 -2.753,12.538c-1.999,3.655 -4.901,6.486 -8.704,8.496c-3.803,2.01 -8.213,3.015 -13.228,3.015l-19.816,0l-1.677,-48.029l20.286,0Zm1.659,37.889c2.373,0 4.458,-0.571 6.254,-1.713c1.796,-1.142 3.172,-2.764 4.129,-4.865c0.957,-2.101 1.388,-4.499 1.294,-7.194c-0.096,-2.74 -0.729,-5.161 -1.9,-7.262c-1.17,-2.101 -2.738,-3.734 -4.705,-4.899c-1.966,-1.165 -4.181,-1.747 -6.643,-1.747l-7.725,0l0.966,27.68l8.33,0Z" style="fill:#fff;fill-rule:nonzero;"/><path d="M530.668,215.038l37.146,0l0.349,10.003l-24.853,0l0.313,8.976l22.435,0l0.347,9.934l-22.433,0.069l0.316,9.044l25.525,0l0.35,10.003l-37.818,0l-1.677,-48.029Z" style="fill:#fff;fill-rule:nonzero;"/></g></g><g><path d="M1635.52,240.224c-19.38,-0 -33.132,-14.098 -33.132,-32.776c0,-18.678 13.752,-32.776 33.132,-32.776c19.381,-0 33.132,14.098 33.132,32.776c0,18.678 -13.751,32.776 -33.132,32.776m0,83.072c-19.38,0 -33.132,-14.097 -33.132,-32.776c0,-18.678 13.752,-32.776 33.132,-32.776c19.381,0 33.132,14.098 33.132,32.776c0,18.679 -13.751,32.776 -33.132,32.776m29.462,65.028c0,2.79 -2.256,5.035 -5.036,5.035l-133.666,0c-2.779,0 -5.035,-2.245 -5.035,-5.035l-0,-42.788c-0,-2.78 2.256,-5.036 5.035,-5.036l133.666,0c2.78,0 5.036,2.256 5.036,5.036l0,42.788Zm-110.842,-130.58c19.38,0 33.122,14.098 33.122,32.776c-0,18.679 -13.742,32.776 -33.122,32.776c-19.391,0 -33.133,-14.097 -33.133,-32.776c0,-18.678 13.742,-32.776 33.133,-32.776m-51.059,54.294c0,2.335 -1.899,4.234 -4.234,4.234l-135.279,0c-2.334,0 -4.224,-1.899 -4.224,-4.234l-0,-44.4c-0,-2.335 1.89,-4.235 4.224,-4.235l135.279,0c2.335,0 4.234,1.9 4.234,4.235l0,44.4Zm51.059,-137.366c19.38,-0 33.122,14.098 33.122,32.776c-0,18.678 -13.742,32.776 -33.122,32.776c-19.391,-0 -33.133,-14.098 -33.133,-32.776c0,-18.678 13.742,-32.776 33.133,-32.776m142.292,-130.876l-346.061,-0c-7.173,-0 -12.98,5.807 -12.98,12.98l0,89.918c0.534,1.019 1.553,1.722 2.78,1.722l44.212,-0c1.752,-0 3.166,1.424 3.166,3.175l0,63.682c0,1.751 -1.414,3.176 -3.166,3.176l-44.212,0c-1.227,0 -2.246,0.702 -2.78,1.721l0,129.759c1.543,9.517 7.994,13.959 20.083,13.959l26.454,-0c1.751,-0 3.166,1.414 3.166,3.166l0,60.328l0.02,-0l-0,9.764l309.318,0c7.173,0 12.98,-5.807 12.98,-12.979l0,-367.391c0,-7.173 -5.807,-12.98 -12.98,-12.98" style="fill:#b2292e;fill-rule:nonzero;"/><path d="M882.992,466.38c-11.783,-0 -23.704,8.072 -23.704,23.506c0,15.423 11.921,23.496 23.704,23.496c11.783,-0 23.704,-8.073 23.704,-23.496c0,-15.434 -11.921,-23.506 -23.704,-23.506" style="fill:#04205c;fill-rule:nonzero;"/><path d="M903.687,523.396l-41.393,-0l-0,143.519l41.393,0l-0,-143.519Z" style="fill:#04205c;fill-rule:nonzero;"/><path d="M1000.44,521.753c-15.235,0 -28.235,5.006 -41.313,16.067l-1.267,-10.626l-0.415,-3.521l-37.386,-0l-0,143.232l41.116,0l-0,-72.981c-0,-19.262 13.118,-33.795 30.5,-33.795c21.082,-0 28.591,16.61 28.591,32.152l0,74.624l41.393,0l-0,-74.901c-0,-21.201 -6.144,-39.087 -17.758,-51.741c-10.952,-11.941 -26.385,-18.51 -43.461,-18.51" style="fill:#04205c;fill-rule:nonzero;"/><path d="M1187,595.289c-0,23.437 -17.689,35.704 -35.16,35.704c-19.895,0 -34.329,-15.018 -34.329,-35.704c-0,-20.865 14.117,-35.427 34.329,-35.427c20.043,-0 35.16,15.225 35.16,35.427m43.579,-127.75l-41.393,-0l0,67.847c-11.496,-10.002 -29.363,-14.731 -40.354,-14.731c-21.112,0 -39.068,6.569 -51.919,18.985c-13.603,13.148 -20.795,32.39 -20.795,55.649c-0,44.638 29.551,74.634 73.535,74.634c12.278,-0 28.443,-2.919 40.691,-15.602l1.058,9.062l0.416,3.522l38.761,0l0,-199.366Z" style="fill:#04205c;fill-rule:nonzero;"/><path d="M1352.09,595.564c0,17.768 -10.11,35.704 -32.696,35.704c-22.577,0 -32.687,-17.936 -32.687,-35.704c-0,-17.333 10.229,-35.981 32.687,-35.981c20.468,-0 32.696,18.292 32.696,35.981m-32.964,-74.357c-21.685,0 -40.334,7.588 -53.927,21.953c-12.821,13.544 -19.885,32.163 -19.885,52.404c-0,20.429 7.004,39.078 19.707,52.503c13.534,14.295 32.331,21.854 54.373,21.854c22.061,-0 40.908,-7.549 54.511,-21.844c12.801,-13.455 19.855,-32.104 19.855,-52.513c0,-20.202 -7.222,-38.821 -20.32,-52.424c-13.613,-14.147 -32.905,-21.933 -54.314,-21.933" style="fill:#04205c;fill-rule:nonzero;"/><path d="M1487.73,629.093l-1.444,-4.403l-4.136,2.068c-4.62,2.315 -9.992,3.69 -14.374,3.69c-8.845,0 -13.524,-5.243 -13.524,-15.176l-0,-54.313l37.504,-0l0,-36.743l-37.227,-0l-0,-38.781l-4.423,0.475l-33.399,3.561l-3.571,0.376l-0,34.369l-25.188,-0l-0,36.743l25.188,-0l-0,54.313c-0,33.399 18.609,53.334 49.772,53.334c0.93,-0 1.88,-0.02 2.83,-0.06c10.575,-0.277 18.994,-2.028 28.986,-6.025l3.483,-1.394l-1.168,-3.562l-9.309,-28.472Z" style="fill:#04205c;fill-rule:nonzero;"/><path d="M1547.39,575.69c5.372,-11.704 16.779,-18.293 32.084,-18.293c9.685,0 25.722,2.493 30.184,18.293l-62.268,-0Zm30.986,-55.857c-22.339,0 -41.403,7.301 -55.125,21.102c-13.286,13.356 -20.597,32.37 -20.597,53.532c-0,22.546 7.202,41.59 20.825,55.065c13.85,13.702 33.686,20.934 57.36,20.934c23.842,-0 47.19,-8.855 60.922,-23.121l2.74,-2.849l-2.809,-2.77l-21.36,-21.082l-2.869,-2.839l-2.809,2.908c-5.323,5.521 -18.787,11.377 -33.261,11.377c-18.302,0 -31.391,-7.835 -35.318,-20.756l104.115,0l0.336,-3.62c2.661,-28.404 -3.274,-51.474 -17.145,-66.71c-12.613,-13.85 -31.638,-21.171 -55.005,-21.171" style="fill:#04205c;fill-rule:nonzero;"/><path d="M1709.41,467.544l-41.126,-0l0,201.008l41.126,0l0,-201.008Z" style="fill:#04205c;fill-rule:nonzero;"/><path d="M907.135,45.399c30.164,-0 50.099,18.312 50.099,46.863c0,28.552 -19.935,46.864 -50.099,46.864c-30.164,-0 -50.098,-18.312 -50.098,-46.864c-0,-28.551 19.934,-46.863 50.098,-46.863" style="fill:#04205c;fill-rule:nonzero;"/><path d="M861.887,434.297l0,-279.362c0,-2.582 2.098,-4.679 4.68,-4.679l81.133,-0c2.592,-0 4.68,2.097 4.68,4.679l-0,279.362c-0,2.582 -2.088,4.68 -4.68,4.68l-81.133,-0c-2.582,-0 -4.68,-2.098 -4.68,-4.68" style="fill:#04205c;fill-rule:nonzero;"/><path d="M1154.41,316.594c-0,35.546 -23.704,53.324 -50.633,53.324c-35.556,-0 -51.711,-22.616 -51.711,-54.937l-0,-36.634c-0,-33.399 16.155,-54.946 51.711,-54.946c26.929,-0 50.633,17.777 50.633,53.333l-0,39.86Zm88.929,-96.32l-45.716,0c-1.741,0 -3.166,-1.414 -3.166,-3.166l0,-63.691c0,-1.742 1.425,-3.166 3.166,-3.166l45.716,-0c0.584,-0 1.098,-0.198 1.563,-0.475l0,-100.366c0,-2.671 -2.166,-4.847 -4.837,-4.847l-80.807,-0c-2.681,-0 -4.848,2.176 -4.848,4.847l-0,118.352c-0,4.066 -4.739,6.371 -7.875,3.769c-14.236,-11.872 -37.436,-22.467 -65.384,-22.467c-79.718,-0 -119.588,60.338 -119.588,124.435l0,46.33c0,64.097 39.87,124.426 119.588,124.426c30.659,-0 55.926,-12.792 69.43,-25.861c3.038,-2.948 8.142,-0.683 8.142,3.552l0,11.001c0,2.681 2.167,4.847 4.838,4.847l76.504,0c2.671,0 4.837,-2.166 4.837,-4.847l0,-212.188c-0.465,-0.277 -0.979,-0.485 -1.563,-0.485" style="fill:#04205c;fill-rule:nonzero;"/><rect x="863.196" y="691.615" width="5.045" height="26.939" style="fill:#231f20;"/><path d="M886.637,718.553l-0,-9.933c-0,-2.878 -1.573,-5.075 -4.581,-5.075c-2.879,0 -4.847,2.424 -4.847,5.313l-0,9.695l-4.66,0l0,-19.014l4.195,-0l0.306,2.582c1.93,-1.89 3.849,-2.85 6.243,-2.85c4.462,0 8.043,3.344 8.043,9.31l0,9.972l-4.699,0Z" style="fill:#231f20;fill-rule:nonzero;"/><path d="M907.778,704.622c-1.345,-1.267 -2.888,-1.692 -4.699,-1.692c-2.226,-0 -3.462,0.692 -3.462,1.88c-0,1.236 1.118,1.929 3.541,2.087c3.582,0.228 8.123,1.029 8.123,6.074c-0,3.344 -2.731,6.233 -8.162,6.233c-2.998,0 -6.005,-0.495 -8.766,-3.383l2.306,-3.354c1.345,1.504 4.422,2.622 6.539,2.661c1.771,0.04 3.423,-0.89 3.423,-2.275c-0,-1.306 -1.078,-1.84 -3.769,-1.999c-3.582,-0.267 -7.856,-1.573 -7.856,-5.886c0,-4.393 4.551,-5.926 8.014,-5.926c2.958,-0 5.194,0.574 7.38,2.503l-2.612,3.077Z" style="fill:#231f20;fill-rule:nonzero;"/><path d="M920.911,694.231l-0,5.382l5.233,-0l-0,4.046l-5.273,0l-0,8.201c-0,1.801 0.999,2.691 2.463,2.691c0.732,0 1.573,-0.227 2.266,-0.583l1.316,4.006c-1.346,0.535 -2.464,0.772 -3.888,0.812c-4.116,0.148 -6.817,-2.197 -6.817,-6.926l0,-8.201l-3.541,0l-0,-4.046l3.541,-0l0,-4.878l4.7,-0.504Z" style="fill:#231f20;fill-rule:nonzero;"/><path d="M929.648,718.554l4.699,0l0,-19.044l-4.699,-0l0,19.044Zm5.125,-24.327c-0,3.66 -5.54,3.66 -5.54,-0c-0,-3.651 5.54,-3.651 5.54,-0" style="fill:#231f20;fill-rule:nonzero;"/><path d="M945.207,694.231l0,5.382l5.234,-0l-0,4.046l-5.274,0l0,8.201c0,1.801 1,2.691 2.464,2.691c0.732,0 1.573,-0.227 2.265,-0.583l1.316,4.006c-1.345,0.535 -2.463,0.772 -3.888,0.812c-4.115,0.148 -6.816,-2.197 -6.816,-6.926l-0,-8.201l-3.542,0l0,-4.046l3.542,-0l-0,-4.878l4.699,-0.504Z" style="fill:#231f20;fill-rule:nonzero;"/><path d="M958.759,699.58l-0,9.933c-0,2.879 1.583,5.075 4.58,5.075c2.889,0 4.848,-2.424 4.848,-5.313l-0,-9.695l4.659,0l0,19.015l-4.194,-0l-0.307,-2.582c-1.969,1.919 -3.769,2.849 -6.43,2.849c-4.541,-0 -7.846,-3.423 -7.846,-9.31l0,-9.972l4.69,0Z" style="fill:#231f20;fill-rule:nonzero;"/><path d="M983.635,694.231l-0,5.382l5.233,-0l0,4.046l-5.273,0l0,8.201c0,1.801 1,2.691 2.464,2.691c0.732,0 1.573,-0.227 2.265,-0.583l1.316,4.006c-1.345,0.535 -2.463,0.772 -3.888,0.812c-4.116,0.148 -6.816,-2.197 -6.816,-6.926l-0,-8.201l-3.542,0l-0,-4.046l3.542,-0l-0,-4.878l4.699,-0.504Z" style="fill:#231f20;fill-rule:nonzero;"/><path d="M996.187,709.087c0,2.889 1.732,5.58 5.155,5.58c3.433,0 5.154,-2.691 5.154,-5.58c-0,-2.849 -1.998,-5.619 -5.154,-5.619c-3.384,0 -5.155,2.77 -5.155,5.619m15.048,0c-0,5.461 -3.73,9.894 -9.893,9.894c-6.154,-0 -9.844,-4.433 -9.844,-9.894c-0,-5.431 3.769,-9.893 9.814,-9.893c6.035,0 9.923,4.462 9.923,9.893" style="fill:#231f20;fill-rule:nonzero;"/><path d="M1027.3,713.665l5.54,-0c6.124,-0 8.548,-4.462 8.429,-8.854c-0.118,-4.195 -2.582,-8.39 -8.429,-8.39l-5.54,0l0,17.244Zm19.015,-8.815c0.109,6.817 -4.047,13.702 -13.475,13.702l-10.585,0l-0,-26.939l10.585,0c9.241,0 13.356,6.579 13.475,13.237" style="fill:#231f20;fill-rule:nonzero;"/><path d="M1053.52,709.087c-0,2.889 1.731,5.58 5.154,5.58c3.433,0 5.155,-2.691 5.155,-5.58c-0,-2.849 -1.999,-5.619 -5.155,-5.619c-3.383,0 -5.154,2.77 -5.154,5.619m15.047,0c0,5.461 -3.729,9.894 -9.893,9.894c-6.153,-0 -9.843,-4.433 -9.843,-9.894c-0,-5.431 3.769,-9.893 9.814,-9.893c6.034,0 9.922,4.462 9.922,9.893" style="fill:#231f20;fill-rule:nonzero;"/><path d="M1084.43,718.553l-0,-10.16c-0,-2.503 -1.306,-4.769 -3.888,-4.769c-2.543,0 -4.036,2.266 -4.036,4.769l-0,10.16l-4.7,0l0,-19.014l4.353,-0l0.347,2.315c0.999,-1.93 3.185,-2.622 4.996,-2.622c2.275,-0 4.541,0.93 5.619,3.542c1.692,-2.691 3.888,-3.463 6.351,-3.463c5.392,0 8.043,3.304 8.043,9.003l0,10.239l-4.699,0l0,-10.239c0,-2.493 -1.039,-4.62 -3.571,-4.62c-2.543,-0 -4.126,2.196 -4.126,4.699l0,10.16l-4.689,0Z" style="fill:#231f20;fill-rule:nonzero;"/><path d="M1106.31,718.554l4.699,0l-0,-19.044l-4.699,-0l-0,19.044Zm5.114,-24.327c0,3.66 -5.54,3.66 -5.54,-0c0,-3.651 5.54,-3.651 5.54,-0" style="fill:#231f20;fill-rule:nonzero;"/><path d="M1129.21,718.553l0,-9.933c0,-2.878 -1.573,-5.075 -4.58,-5.075c-2.879,0 -4.848,2.424 -4.848,5.313l0,9.695l-4.66,0l0,-19.014l4.195,-0l0.307,2.582c1.929,-1.89 3.848,-2.85 6.242,-2.85c4.462,0 8.043,3.344 8.043,9.31l0,9.972l-4.699,0Z" style="fill:#231f20;fill-rule:nonzero;"/><path d="M1137.96,718.554l4.699,0l-0,-19.044l-4.699,-0l-0,19.044Zm5.114,-24.327c0,3.66 -5.54,3.66 -5.54,-0c0,-3.651 5.54,-3.651 5.54,-0" style="fill:#231f20;fill-rule:nonzero;"/><path d="M1163.17,716.127c-2.196,2.157 -4.501,2.998 -7.311,2.998c-5.5,-0 -10.081,-3.304 -10.081,-10.042c0,-6.737 4.581,-10.041 10.081,-10.041c2.691,-0 4.769,0.772 6.846,2.81l-2.958,3.116c-1.118,-0.999 -2.503,-1.504 -3.809,-1.504c-3.155,0 -5.47,2.315 -5.47,5.619c-0,3.621 2.463,5.541 5.391,5.541c1.504,-0 2.998,-0.416 4.155,-1.573l3.156,3.076Z" style="fill:#231f20;fill-rule:nonzero;"/><path d="M1168.91,709.046c0,3.621 2.503,5.768 5.62,5.768c7.39,-0 7.39,-11.506 -0,-11.506c-3.117,-0 -5.62,2.117 -5.62,5.738m11.387,-9.468l4.502,0l-0,18.975l-4.423,0l-0.227,-2.77c-1.078,2.226 -4.037,3.304 -6.164,3.344c-5.609,0.04 -9.764,-3.423 -9.764,-10.081c-0,-6.539 4.343,-9.972 9.883,-9.923c2.543,0 4.967,1.187 6.045,3.077l0.148,-2.622Z" style="fill:#231f20;fill-rule:nonzero;"/><path d="M1202.75,718.553l-0,-9.933c-0,-2.878 -1.573,-5.075 -4.581,-5.075c-2.879,0 -4.847,2.424 -4.847,5.313l-0,9.695l-4.66,0l-0,-19.014l4.195,-0l0.306,2.582c1.929,-1.89 3.849,-2.85 6.243,-2.85c4.462,0 8.043,3.344 8.043,9.31l-0,9.972l-4.699,0Z" style="fill:#231f20;fill-rule:nonzero;"/><path d="M1215.31,709.087c0,2.889 1.731,5.58 5.154,5.58c3.433,0 5.155,-2.691 5.155,-5.58c-0,-2.849 -1.999,-5.619 -5.155,-5.619c-3.383,0 -5.154,2.77 -5.154,5.619m15.047,0c0,5.461 -3.729,9.894 -9.893,9.894c-6.153,-0 -9.843,-4.433 -9.843,-9.894c-0,-5.431 3.769,-9.893 9.814,-9.893c6.034,0 9.922,4.462 9.922,9.893" style="fill:#231f20;fill-rule:nonzero;"/><path d="M1245.18,709.046c0,3.304 2.385,5.58 5.382,5.58c2.968,-0 5.511,-2.157 5.511,-5.58c-0,-3.304 -2.543,-5.54 -5.511,-5.54c-2.997,-0 -5.382,2.117 -5.382,5.54m15.889,-17.392l-0,26.899l-4.383,0l-0.307,-2.622c-1.464,2.276 -3.809,3.048 -6.124,3.048c-5.579,-0 -9.764,-3.7 -9.764,-9.933c-0,-6.539 4.115,-9.923 9.656,-9.923c1.998,0 5.114,1.078 6.232,3.037l0,-10.506l4.69,-0Z" style="fill:#231f20;fill-rule:nonzero;"/><path d="M1279.91,706.853c-0.307,-2.464 -2.236,-3.691 -4.927,-3.691c-2.542,0 -4.62,1.227 -5.312,3.691l10.239,-0Zm-10.309,3.888c0.307,2.344 2.345,4.036 5.649,4.036c1.732,-0 4.007,-0.653 5.086,-1.771l2.997,2.968c-1.998,2.078 -5.273,3.077 -8.162,3.077c-6.539,-0 -10.427,-4.037 -10.427,-10.121c-0,-5.768 3.928,-9.923 10.091,-9.923c6.341,0 10.309,3.918 9.576,11.734l-14.81,-0Z" style="fill:#231f20;fill-rule:nonzero;"/><rect x="1295.81" y="691.655" width="4.66" height="26.899" style="fill:#231f20;"/><path d="M1308.25,709.046c-0,3.621 2.503,5.768 5.619,5.768c7.39,-0 7.39,-11.506 0,-11.506c-3.116,-0 -5.619,2.117 -5.619,5.738m11.387,-9.468l4.501,0l0,18.975l-4.422,0l-0.228,-2.77c-1.078,2.226 -4.036,3.304 -6.163,3.344c-5.609,0.04 -9.764,-3.423 -9.764,-10.081c-0,-6.539 4.343,-9.972 9.883,-9.923c2.542,0 4.966,1.187 6.044,3.077l0.149,-2.622Z" style="fill:#231f20;fill-rule:nonzero;"/><path d="M1340.52,704.622c-1.345,-1.267 -2.888,-1.692 -4.699,-1.692c-2.226,-0 -3.462,0.692 -3.462,1.88c-0,1.236 1.117,1.929 3.541,2.087c3.582,0.228 8.123,1.029 8.123,6.074c-0,3.344 -2.731,6.233 -8.162,6.233c-2.998,0 -5.996,-0.495 -8.766,-3.383l2.305,-3.354c1.346,1.504 4.423,2.622 6.54,2.661c1.771,0.04 3.423,-0.89 3.423,-2.275c-0,-1.306 -1.078,-1.84 -3.769,-1.999c-3.582,-0.267 -7.856,-1.573 -7.856,-5.886c0,-4.393 4.551,-5.926 8.014,-5.926c2.958,-0 5.194,0.574 7.38,2.503l-2.612,3.077Z" style="fill:#231f20;fill-rule:nonzero;"/><path d="M1362.12,696.233l-8.548,0l0,-4.62l22.171,0l-0,4.62l-8.548,0l0,22.319l-5.075,0l-0,-22.319Z" style="fill:#231f20;fill-rule:nonzero;"/><path d="M1387.6,706.853c-0.307,-2.464 -2.236,-3.691 -4.927,-3.691c-2.543,0 -4.62,1.227 -5.313,3.691l10.24,-0Zm-10.319,3.888c0.317,2.344 2.355,4.036 5.659,4.036c1.731,-0 4.007,-0.653 5.085,-1.771l2.998,2.968c-1.999,2.078 -5.273,3.077 -8.162,3.077c-6.539,-0 -10.427,-4.037 -10.427,-10.121c-0,-5.768 3.927,-9.923 10.09,-9.923c6.342,0 10.309,3.918 9.577,11.734l-14.82,-0Z" style="fill:#231f20;fill-rule:nonzero;"/><rect x="1395.73" y="691.655" width="4.66" height="26.899" style="fill:#231f20;"/><path d="M1418.83,706.853c-0.306,-2.464 -2.236,-3.691 -4.926,-3.691c-2.543,0 -4.621,1.227 -5.313,3.691l10.239,-0Zm-10.318,3.888c0.316,2.344 2.354,4.036 5.659,4.036c1.731,-0 4.006,-0.653 5.085,-1.771l2.997,2.968c-1.998,2.078 -5.273,3.077 -8.162,3.077c-6.539,-0 -10.427,-4.037 -10.427,-10.121c0,-5.768 3.928,-9.923 10.091,-9.923c6.342,0 10.309,3.918 9.577,11.734l-14.82,-0Z" style="fill:#231f20;fill-rule:nonzero;"/><path d="M1443.24,716.127c-2.197,2.157 -4.502,2.998 -7.311,2.998c-5.501,-0 -10.082,-3.304 -10.082,-10.042c0,-6.737 4.581,-10.041 10.082,-10.041c2.691,-0 4.768,0.772 6.846,2.81l-2.958,3.116c-1.118,-0.999 -2.503,-1.504 -3.809,-1.504c-3.156,0 -5.471,2.315 -5.471,5.619c-0,3.621 2.463,5.541 5.392,5.541c1.503,-0 2.997,-0.416 4.155,-1.573l3.156,3.076Z" style="fill:#231f20;fill-rule:nonzero;"/><path d="M1449.52,709.087c-0,2.889 1.731,5.58 5.154,5.58c3.433,0 5.154,-2.691 5.154,-5.58c0,-2.849 -1.998,-5.619 -5.154,-5.619c-3.383,0 -5.154,2.77 -5.154,5.619m15.047,0c0,5.461 -3.73,9.894 -9.893,9.894c-6.153,-0 -9.844,-4.433 -9.844,-9.894c0,-5.431 3.77,-9.893 9.804,-9.893c6.045,0 9.933,4.462 9.933,9.893" style="fill:#231f20;fill-rule:nonzero;"/><path d="M1480.43,718.553l-0,-10.16c-0,-2.503 -1.306,-4.769 -3.888,-4.769c-2.533,0 -4.037,2.266 -4.037,4.769l0,10.16l-4.699,0l0,-19.014l4.353,-0l0.346,2.315c1,-1.93 3.196,-2.622 4.996,-2.622c2.276,-0 4.541,0.93 5.62,3.542c1.701,-2.691 3.888,-3.463 6.351,-3.463c5.392,0 8.043,3.304 8.043,9.003l0,10.239l-4.689,0l-0,-10.239c-0,-2.493 -1.039,-4.62 -3.581,-4.62c-2.543,-0 -4.116,2.196 -4.116,4.699l0,10.16l-4.699,0Z" style="fill:#231f20;fill-rule:nonzero;"/><path d="M1506.31,699.58l0,9.933c0,2.879 1.583,5.075 4.581,5.075c2.888,0 4.847,-2.424 4.847,-5.313l0,-9.695l4.66,0l-0,19.015l-4.195,-0l-0.306,-2.582c-1.969,1.919 -3.77,2.849 -6.431,2.849c-4.541,-0 -7.845,-3.423 -7.845,-9.31l-0,-9.972l4.689,0Z" style="fill:#231f20;fill-rule:nonzero;"/><path d="M1538.54,718.553l0,-9.933c0,-2.878 -1.573,-5.075 -4.58,-5.075c-2.879,0 -4.848,2.424 -4.848,5.313l-0,9.695l-4.66,0l0,-19.014l4.195,-0l0.307,2.582c1.929,-1.89 3.848,-2.85 6.242,-2.85c4.462,0 8.043,3.344 8.043,9.31l0,9.972l-4.699,0Z" style="fill:#231f20;fill-rule:nonzero;"/><path d="M1547.29,718.554l4.699,0l-0,-19.044l-4.699,-0l-0,19.044Zm5.114,-24.327c0,3.66 -5.54,3.66 -5.54,-0c0,-3.651 5.54,-3.651 5.54,-0" style="fill:#231f20;fill-rule:nonzero;"/><path d="M1572.5,716.127c-2.196,2.157 -4.501,2.998 -7.311,2.998c-5.5,-0 -10.081,-3.304 -10.081,-10.042c0,-6.737 4.581,-10.041 10.081,-10.041c2.691,-0 4.769,0.772 6.846,2.81l-2.958,3.116c-1.118,-0.999 -2.503,-1.504 -3.809,-1.504c-3.156,0 -5.471,2.315 -5.471,5.619c0,3.621 2.464,5.541 5.392,5.541c1.504,-0 2.998,-0.416 4.155,-1.573l3.156,3.076Z" style="fill:#231f20;fill-rule:nonzero;"/><path d="M1578.24,709.046c0,3.621 2.503,5.768 5.619,5.768c7.391,-0 7.391,-11.506 0,-11.506c-3.116,-0 -5.619,2.117 -5.619,5.738m11.387,-9.468l4.501,0l0,18.975l-4.422,0l-0.227,-2.77c-1.079,2.226 -4.037,3.304 -6.164,3.344c-5.609,0.04 -9.764,-3.423 -9.764,-10.081c-0,-6.539 4.343,-9.972 9.883,-9.923c2.543,0 4.966,1.187 6.045,3.077l0.148,-2.622Z" style="fill:#231f20;fill-rule:nonzero;"/><path d="M1614.81,716.127c-2.196,2.157 -4.501,2.998 -7.311,2.998c-5.501,-0 -10.081,-3.304 -10.081,-10.042c-0,-6.737 4.58,-10.041 10.081,-10.041c2.691,-0 4.769,0.772 6.846,2.81l-2.958,3.116c-1.118,-0.999 -2.503,-1.504 -3.809,-1.504c-3.156,0 -5.471,2.315 -5.471,5.619c0,3.621 2.464,5.541 5.392,5.541c1.504,-0 3.008,-0.416 4.155,-1.573l3.156,3.076Z" style="fill:#231f20;fill-rule:nonzero;"/><path d="M1616.89,718.554l4.699,0l-0,-19.044l-4.699,-0l-0,19.044Zm5.124,-24.327c0,3.66 -5.55,3.66 -5.55,-0c0,-3.651 5.55,-3.651 5.55,-0" style="fill:#231f20;fill-rule:nonzero;"/><path d="M1630.06,709.087c0,2.889 1.732,5.58 5.155,5.58c3.432,0 5.154,-2.691 5.154,-5.58c-0,-2.849 -1.999,-5.619 -5.154,-5.619c-3.384,0 -5.155,2.77 -5.155,5.619m15.048,0c-0,5.461 -3.73,9.894 -9.893,9.894c-6.154,-0 -9.844,-4.433 -9.844,-9.894c-0,-5.431 3.769,-9.893 9.804,-9.893c6.045,0 9.933,4.462 9.933,9.893" style="fill:#231f20;fill-rule:nonzero;"/><path d="M1662.32,718.553l-0,-9.933c-0,-2.878 -1.573,-5.075 -4.581,-5.075c-2.879,0 -4.847,2.424 -4.847,5.313l-0,9.695l-4.66,0l-0,-19.014l4.195,-0l0.306,2.582c1.929,-1.89 3.849,-2.85 6.243,-2.85c4.462,0 8.043,3.344 8.043,9.31l-0,9.972l-4.699,0Z" style="fill:#231f20;fill-rule:nonzero;"/><path d="M1685.39,706.853c-0.307,-2.464 -2.236,-3.691 -4.927,-3.691c-2.543,0 -4.62,1.227 -5.313,3.691l10.24,-0Zm-10.309,3.888c0.307,2.344 2.345,4.036 5.649,4.036c1.731,-0 4.007,-0.653 5.085,-1.771l2.998,2.968c-1.999,2.078 -5.273,3.077 -8.162,3.077c-6.54,-0 -10.428,-4.037 -10.428,-10.121c0,-5.768 3.928,-9.923 10.091,-9.923c6.342,0 10.309,3.918 9.577,11.734l-14.81,-0Z" style="fill:#231f20;fill-rule:nonzero;"/><path d="M1705.91,704.622c-1.346,-1.267 -2.889,-1.692 -4.699,-1.692c-2.226,-0 -3.463,0.692 -3.463,1.88c0,1.236 1.118,1.929 3.542,2.087c3.581,0.228 8.122,1.029 8.122,6.074c-0,3.344 -2.731,6.233 -8.162,6.233c-2.997,0 -6.005,-0.495 -8.765,-3.383l2.305,-3.354c1.345,1.504 4.422,2.622 6.539,2.661c1.771,0.04 3.423,-0.89 3.423,-2.275c0,-1.306 -1.078,-1.84 -3.769,-1.999c-3.581,-0.267 -7.855,-1.573 -7.855,-5.886c-0,-4.393 4.551,-5.926 8.013,-5.926c2.958,-0 5.194,0.574 7.381,2.503l-2.612,3.077Z" style="fill:#231f20;fill-rule:nonzero;"/></g></g></g></g></svg>