<svg width="69" height="64" viewBox="0 0 69 64" fill="none" xmlns="http://www.w3.org/2000/svg">
<path fill-rule="evenodd" clip-rule="evenodd" d="M6.15308 30.4604C4.73029 29.9751 3.5835 29.5839 3.12031 29.4615L3.12048 29.4617C2.59596 29.2869 2.16022 28.9151 1.90522 28.4245C1.64968 27.9339 1.59535 27.3636 1.75297 26.8337V26.8343L3.21348 21.9861C3.50779 21.0258 4.25768 20.2738 5.21633 19.9768L10.6181 18.3032C10.9499 18.2404 11.0761 17.7816 11.1714 17.435C11.1961 17.3455 11.2186 17.2635 11.2421 17.1977C6.81198 12.691 8.99345 1.92303 15.5098 1.89021C22.032 1.915 24.2076 12.7093 19.7721 17.2046C19.806 17.2846 19.8349 17.3908 19.8662 17.5057C19.9563 17.8366 20.0661 18.24 20.3735 18.2999L23.9855 19.4194L26.7695 18.5592C27.2253 18.466 27.3869 17.8805 27.5138 17.4209C27.5444 17.3098 27.5731 17.2061 27.6033 17.1185C22.6292 12.0951 24.9398 0.102214 32.2545 0C39.5703 0.0936492 41.8804 12.1181 36.8966 17.1282C36.9323 17.2228 36.9651 17.3404 37.0004 17.4672C37.1242 17.9118 37.2796 18.4701 37.7057 18.5559L40.5021 19.4199L44.1043 18.3036C44.4287 18.2395 44.5254 17.8779 44.612 17.5541C44.6475 17.4214 44.6813 17.295 44.7283 17.1981C40.3078 12.693 42.464 1.92929 48.996 1.89056C55.5275 1.9181 57.6853 12.713 53.2583 17.205C53.282 17.2702 53.3052 17.3529 53.3306 17.4435C53.4261 17.7839 53.553 18.2365 53.8597 18.3002L59.2717 19.9771C60.2287 20.2724 60.9775 21.0218 61.2723 21.9789V21.9783L62.7361 26.8411C62.8911 27.3661 62.8384 27.9304 62.5882 28.4173C62.3381 28.9041 61.9104 29.2764 61.3934 29.4561V29.4555C60.91 29.5734 59.6397 30.0088 58.0821 30.5426C54.7085 31.6989 49.9873 33.317 48.9955 33.1712C48.0222 33.2531 46.3568 32.6773 45.0031 32.2092C44.4435 32.0157 43.9372 31.8407 43.555 31.7381C43.0427 31.8687 41.9253 32.2534 40.5774 32.7175C37.5552 33.758 33.3739 35.1976 32.2544 35.0671C31.1024 35.1874 26.9403 33.7558 23.9223 32.7177C22.5828 32.2569 21.4687 31.8737 20.9431 31.7381C20.5747 31.8405 20.0918 32.0083 19.5576 32.1939C18.19 32.669 16.4865 33.2607 15.5097 33.1718C14.498 33.3067 9.54241 31.6164 6.15308 30.4604ZM48.996 4.30013C54.5489 4.61646 54.5462 16.5244 48.996 16.8391C43.4432 16.5222 43.4458 4.61427 48.996 4.30013ZM46.7597 18.7287C46.4471 19.6341 45.7187 20.3334 44.8021 20.6089L44.4422 20.721C45.1884 21.124 45.7435 21.8071 45.9856 22.62V22.6195L47.6355 28.1147C47.7539 28.5048 47.7619 28.9195 47.6581 29.3133C47.5548 29.7077 47.3439 30.0649 47.0491 30.3462L47.6812 30.5533C48.5383 30.8309 49.4609 30.8304 50.3173 30.5512H50.3178L60.3477 27.2626L58.9673 22.6807C58.9065 22.4875 58.7543 22.3369 58.5601 22.2788V22.2793L53.1562 20.6047C52.2519 20.3222 51.5353 19.6271 51.2265 18.7314C49.8175 19.4222 48.1682 19.4211 46.7597 18.7287ZM27.3296 9.65701C27.6535 0.0682934 36.8554 0.0688439 37.1782 9.65701C36.8543 19.2479 27.6524 19.2452 27.3296 9.65701ZM29.6267 18.7283C29.3039 19.7547 28.4948 20.5552 27.4646 20.8667C26.7955 21.0731 25.835 21.37 24.8389 21.678C23.5638 22.0721 22.2304 22.4843 21.3748 22.748C21.1031 22.8314 20.8912 23.0444 20.8089 23.3161H20.8083L19.2116 28.6338L30.7149 32.4061C31.7134 32.738 32.7925 32.7386 33.791 32.4066V32.4072L45.2755 28.6371L43.674 23.3047C43.5928 23.0374 43.3824 22.8292 43.1151 22.749L40.1391 21.8296C40.1314 21.8207 39.4737 21.6211 38.7627 21.4053C37.9227 21.1504 37.0084 20.873 37.0038 20.8607C35.9639 20.5434 35.1554 19.7219 34.8546 18.6772C33.2079 19.4793 31.2884 19.4981 29.6267 18.7283ZM15.5099 16.838C21.0601 16.5233 21.0627 4.61536 15.5099 4.29903L15.5093 4.29958C9.9591 4.61372 9.95703 16.5216 15.5099 16.838ZM5.92809 22.2773C5.72636 22.3419 5.56981 22.5027 5.51118 22.7066L4.14032 27.2584L14.1949 30.5524C15.2698 30.873 16.4238 30.8004 17.4497 30.3474C17.1505 30.0644 16.9364 29.7035 16.8315 29.3053C16.7266 28.9072 16.7358 28.4876 16.8568 28.0944L18.503 22.6104C18.7542 21.805 19.3067 21.1277 20.0453 20.7199C18.9818 20.5059 18.1076 19.7516 17.7401 18.7306C16.3311 19.4208 14.6818 19.4202 13.2739 18.7284C12.9609 19.6338 12.2314 20.3331 11.3142 20.6086L5.92809 22.2773ZM62.1369 33.4382H64.0983L64.0979 33.438C65.1593 33.4025 66.1912 33.7882 66.9686 34.5112C67.7459 35.2346 68.2053 36.2364 68.2462 37.2973V56.5504C68.2054 57.6114 67.7459 58.6131 66.9686 59.3361C66.1911 60.0596 65.1593 60.4454 64.0979 60.4099H62.136C61.2978 60.4233 60.4753 60.1818 59.7781 59.7164C59.0804 59.2511 58.5413 58.5847 58.232 57.8052L46.6603 62.7979C44.1619 63.8873 41.4059 64.2466 38.7118 63.8351L20.913 61.1361C18.5804 60.789 16.4108 59.7324 14.6995 58.1094L2.07133 46.1795C-1.59655 42.6348 3.11703 36.7398 7.37669 39.5856L18.7493 47.3447C20.3643 48.3582 22.3177 48.6842 24.1742 48.2501L25.2383 48.0328C24.9612 46.7308 25.2168 45.3725 25.9479 44.2599C26.679 43.1479 27.8249 42.3743 29.1295 42.1123C32.5778 41.5201 38.0053 40.91 40.933 40.5996C42.4933 40.5298 44.5032 39.3559 46.1626 38.3868C46.6893 38.0791 47.1808 37.7921 47.6113 37.5676C50.0284 36.0049 53.4642 36.045 56.456 36.08C57.0659 36.0871 57.6573 36.094 58.2179 36.0871C58.5201 35.2969 59.0581 34.6185 59.7591 34.1446C60.4606 33.6706 61.2907 33.4243 62.1369 33.4382ZM39.0738 61.4519C41.3197 61.7957 43.6174 61.496 45.7004 60.5869L57.9884 55.2854V38.4974H53.2763C50.9934 38.336 48.4598 39.805 46.3457 41.0307C45.8942 41.2925 45.4618 41.5432 45.0552 41.7645C43.8631 42.4353 42.546 42.8544 41.1861 42.9964C38.2875 43.3036 32.9203 43.9061 29.538 44.4871C28.8726 44.6388 28.2948 45.0488 27.9328 45.6276C27.5707 46.206 27.454 46.9048 27.6084 47.5697C27.7628 48.2341 28.1754 48.8103 28.7553 49.1702L45.889 47.3254C46.5437 47.2657 47.1252 47.7423 47.1957 48.396C47.2667 49.0496 46.8003 49.6397 46.1478 49.7215L28.667 51.6038C28.4615 51.6259 28.2544 51.5952 28.0645 51.514C27.4034 51.2321 26.8132 50.8055 26.3382 50.2659L24.5388 50.6291C22.0802 51.1692 19.5083 50.7038 17.3946 49.3369V49.3374L6.01605 41.5751C5.22472 41.0899 4.19606 41.2685 3.61505 41.9926C3.03352 42.7162 3.08139 43.7593 3.72587 44.4269L16.3541 56.3568C17.7087 57.6409 19.4259 58.4774 21.2721 58.7529L39.0738 61.4519ZM64.0982 57.9993C64.9756 58.0703 65.7487 57.4258 65.8363 56.55L65.8364 37.297C65.7486 36.4213 64.9756 35.7768 64.0982 35.8478H62.1368C61.2589 35.7767 60.4863 36.4212 60.3986 37.297V56.0503C60.3999 56.0581 60.3992 56.1563 60.3984 56.2637C60.3976 56.3917 60.3966 56.5328 60.3986 56.55C60.4864 57.4258 61.2588 58.0703 62.1368 57.9993H64.0982Z" fill="#00AEEF"/>
</svg>
