<svg width="51" height="64" viewBox="0 0 51 64" fill="none" xmlns="http://www.w3.org/2000/svg">
<path d="M3.95672 27.6972C4.0597 28.5163 3.48475 29.2647 2.67274 29.3663C1.86068 29.4702 1.12087 28.8903 1.01796 28.0712C0.947958 27.5186 0.89737 26.9915 0.866661 26.4898C0.831884 25.9336 0.81427 25.4024 0.81427 24.9008C0.81427 18.0294 3.57833 11.8059 8.04422 7.30062C12.516 2.78995 18.685 0 25.4973 0C32.3136 0 38.4863 2.78809 42.9539 7.29467C47.4215 11.8013 50.1857 18.028 50.1857 24.903C50.1857 31.7726 47.4198 37.9979 42.948 42.5079C41.4409 44.0263 39.7409 45.3511 37.8877 46.4381V62.5011C37.8877 63.3298 37.2215 64 36.4 64C36.167 64 35.9456 63.9453 35.7492 63.8492L25.4968 59.8442L15.1337 63.8961C14.3704 64.194 13.5119 63.81 13.2165 63.0401C13.1483 62.8619 13.1175 62.6797 13.1175 62.5011H13.1117V46.4404C9.43836 44.2869 6.36364 41.1972 4.20741 37.4938C3.7937 36.7827 4.03082 35.8656 4.73583 35.4483C5.44086 35.031 6.35003 35.2702 6.76372 35.9813C8.68096 39.271 11.4315 42.0141 14.7258 43.9165C14.8888 44.0104 15.0541 44.1029 15.219 44.1926C15.2732 44.2181 15.326 44.2455 15.3762 44.2769C18.3968 45.8855 21.8406 46.7966 25.4962 46.7966C29.1558 46.7966 32.6038 45.8855 35.628 44.275C35.6745 44.2454 35.721 44.2204 35.7716 44.1985C37.65 43.1798 39.3613 41.8906 40.8571 40.3835C44.7828 36.4254 47.2128 30.949 47.2128 24.9013C47.2128 18.8526 44.7807 13.3784 40.8531 9.4132C36.9233 5.44928 31.4946 2.99825 25.4985 2.99825C19.502 2.99825 14.075 5.44741 10.1497 9.40912C6.22217 13.373 3.79192 18.8514 3.79192 24.9018C3.79192 25.4053 3.80547 25.8718 3.83257 26.3045C3.86373 26.802 3.90619 27.2667 3.96084 27.6976L3.95672 27.6972ZM34.9121 47.9215C32.0103 49.1305 28.8302 49.7984 25.4953 49.7984C22.164 49.7984 18.9862 49.1301 16.0861 47.9233V60.3161L24.9615 56.846C25.2935 56.7166 25.6724 56.707 26.0297 56.846L34.9104 60.3161V47.921L34.9121 47.9215ZM26.9112 14.7947L28.7155 20.4339L34.6014 20.422C35.4193 20.422 36.0836 21.0904 36.0836 21.9172C36.0836 22.4147 35.8429 22.8557 35.4716 23.1281L35.4734 23.1299L30.7104 26.606L32.54 32.2452C32.7925 33.031 32.367 33.8753 31.5861 34.1322C31.0771 34.2989 30.5451 34.1732 30.1662 33.8502L25.4966 30.4174L20.7435 33.9167C20.0832 34.4028 19.1563 34.2556 18.6749 33.5896C18.3836 33.1877 18.3235 32.6884 18.4631 32.2493H18.459L20.2869 26.6101L15.526 23.1341C14.8616 22.648 14.7139 21.7118 15.1958 21.0434C15.5084 20.6083 16.0115 20.3928 16.507 20.4284L22.284 20.4402L24.0866 14.7915C24.3373 14.0056 25.1723 13.5729 25.9515 13.8257C26.4275 13.9806 26.773 14.3546 26.913 14.8015L26.9112 14.7947ZM26.2238 22.3874L25.4971 20.1186L24.7745 22.3874C24.5821 22.9887 24.0229 23.4238 23.3622 23.4238L20.9883 23.4197L22.9074 24.8206C23.4146 25.191 23.6513 25.863 23.4476 26.4957L22.7096 28.7704L24.6015 27.3773C25.1087 26.9892 25.8273 26.9618 26.3671 27.3596L28.2902 28.7741L27.5676 26.5505C27.344 25.9373 27.5405 25.2239 28.0901 24.8202L30.0092 23.4193L27.7036 23.4234C27.051 23.4548 26.4313 23.0435 26.2235 22.387L26.2238 22.3874ZM25.4953 7.23636C30.3302 7.23636 34.7085 9.21353 37.8784 12.4112C41.0485 15.607 43.0087 20.0235 43.0087 24.902C43.0087 29.7748 41.0467 34.1911 37.8748 37.3892C34.7047 40.585 30.3282 42.5619 25.4975 42.5619C20.6649 42.5619 16.2862 40.5847 13.1179 37.3892C9.94962 34.1934 7.98983 29.7793 7.98983 24.902C7.98983 20.0292 9.94997 15.6146 13.1179 12.417C16.2899 9.2175 20.6681 7.23671 25.4975 7.23671L25.4953 7.23636ZM35.7766 14.531C33.1467 11.8782 29.5101 10.2364 25.4953 10.2364C21.4801 10.2364 17.8458 11.8764 15.2199 14.5274C12.59 17.1802 10.964 20.8485 10.964 24.9022C10.964 28.9523 12.5898 32.616 15.2199 35.267C17.8498 37.9198 21.4843 39.5616 25.4976 39.5616C29.5164 39.5616 33.1531 37.9216 35.7848 35.2687C38.4112 32.6195 40.0371 28.9558 40.0371 24.9016C40.0371 20.8515 38.4093 17.1856 35.7794 14.5309L35.7766 14.531Z" fill="#00AEEF"/>
</svg>
