<svg width="65" height="65" viewBox="0 0 65 65" fill="none" xmlns="http://www.w3.org/2000/svg">
<path fill-rule="evenodd" clip-rule="evenodd" d="M4.49965 0H60.4998L60.5003 1.14286e-05C61.561 1.14286e-05 62.5784 0.421441 63.3289 1.17144C64.0789 1.92185 64.5003 2.93931 64.5003 4.00002V49.3339C64.5003 50.3946 64.0789 51.412 63.3289 52.162C62.5785 52.9125 61.561 53.3339 60.5003 53.3339H49.8337C49.0971 53.3339 48.5002 52.7366 48.5002 52.0004C48.5002 51.2642 49.0971 50.6669 49.8337 50.6669H60.5003C60.8539 50.6669 61.1931 50.5267 61.4431 50.2767C61.6931 50.0263 61.8338 49.6875 61.8338 49.3339V13.3338H3.16616V49.3339C3.16616 50.07 3.76348 50.6669 4.49965 50.6669H15.1662C15.9028 50.6669 16.4997 51.2642 16.4997 52.0004C16.4997 52.7366 15.9028 53.3339 15.1662 53.3339H4.49965C3.43896 53.3339 2.42151 52.9124 1.67107 52.162C0.921064 51.412 0.499634 50.3946 0.499634 49.3339V4.00001C0.499634 2.93932 0.921064 1.92188 1.67107 1.17143C2.42147 0.42143 3.43893 0 4.49965 0ZM3.16593 4.00001V10.6665H61.8331V4.00001C61.8331 3.64643 61.6925 3.30715 61.4425 3.05715C61.1925 2.80715 60.8532 2.66652 60.4996 2.66652H4.49942C3.76326 2.66652 3.16593 3.26385 3.16593 4.00001ZM7.16616 5.33398H8.49965C9.23582 5.33398 9.83314 5.93085 9.83314 6.66702C9.83314 7.40363 9.23582 8.00051 8.49965 8.00051H7.16616C6.43001 8.00051 5.83313 7.40363 5.83313 6.66702C5.83313 5.93087 6.43 5.33398 7.16616 5.33398ZM15.1659 5.33398H13.8329C13.0963 5.33398 12.4994 5.93087 12.4994 6.66702C12.4994 7.40363 13.0963 8.00051 13.8329 8.00051H15.1659C15.9025 8.00051 16.4994 7.40363 16.4994 6.66702C16.4994 5.93085 15.9025 5.33398 15.1659 5.33398ZM20.4999 5.33398H21.8334C22.5695 5.33398 23.1664 5.93085 23.1664 6.66702C23.1664 7.40363 22.5695 8.00051 21.8334 8.00051H20.4999C19.7637 8.00051 19.1664 7.40363 19.1664 6.66702C19.1664 5.93087 19.7637 5.33398 20.4999 5.33398ZM57.8335 5.33398H56.5C55.7638 5.33398 55.1665 5.93087 55.1665 6.66702C55.1665 7.40363 55.7638 8.00051 56.5 8.00051H57.8335C58.5696 8.00051 59.1665 7.40363 59.1665 6.66702C59.1665 5.93085 58.5696 5.33398 57.8335 5.33398ZM41.8334 38.6672V42.6672H41.8339C42.8946 42.6672 43.912 43.0887 44.662 43.8391C45.4125 44.5891 45.8339 45.6065 45.8339 46.6672V60.001C45.8339 61.0617 45.4125 62.0791 44.662 62.8296C43.9121 63.5796 42.8946 64.001 41.8339 64.001H23.1664C22.1057 64.001 21.0883 63.5796 20.3383 62.8296C19.5878 62.0792 19.1664 61.0617 19.1664 60.001V46.6672C19.1664 45.6066 19.5878 44.5891 20.3383 43.8391C21.0882 43.0887 22.1057 42.6672 23.1664 42.6672V38.6672C23.1664 35.3328 24.9454 32.2515 27.8334 30.5846C30.7209 28.9171 34.2789 28.9171 37.1664 30.5846C40.0545 32.2515 41.8334 35.3328 41.8334 38.6672ZM29.1664 32.8939C27.1039 34.0846 25.8334 36.2855 25.8334 38.6672L25.8338 42.6672H39.1664V38.6672C39.1664 36.2855 37.8959 34.0846 35.8334 32.8939C33.7704 31.7029 31.2294 31.7029 29.1664 32.8939ZM42.7758 60.9439C43.0258 60.6939 43.166 60.3546 43.166 60.001V46.6673C43.166 46.3137 43.0258 45.9748 42.7758 45.7244C42.5254 45.4744 42.1865 45.3342 41.833 45.3342H23.1655C22.4293 45.3342 21.8324 45.9311 21.8324 46.6672V60.001C21.8324 60.7372 22.4293 61.3345 23.1655 61.3345H41.833C42.1865 61.3345 42.5254 61.1939 42.7758 60.9439ZM32.4998 48C31.2391 48.0098 30.0564 48.6134 29.3091 49.629C28.5618 50.6442 28.3372 51.9527 28.7024 53.1594C29.068 54.3662 29.9811 55.33 31.1663 55.7599V57.3336C31.1663 58.0698 31.7636 58.6667 32.4998 58.6667C33.236 58.6667 33.8333 58.0698 33.8333 57.3336V55.7599C35.0186 55.33 35.9315 54.3662 36.2972 53.1594C36.6624 51.9527 36.4378 50.6442 35.6905 49.629C34.9432 48.6134 33.7604 48.0098 32.4998 48ZM32.4998 53.3335C31.9605 53.3335 31.4743 53.0085 31.2681 52.5103C31.0614 52.0121 31.1757 51.4384 31.5569 51.0571C31.9382 50.6759 32.5118 50.5616 33.0101 50.7683C33.5083 50.9746 33.8333 51.4607 33.8333 52C33.8333 52.3535 33.6927 52.6928 33.4427 52.9428C33.1927 53.1928 32.8533 53.3335 32.4998 53.3335ZM35.3284 18.5054C36.0784 19.2554 36.4998 20.2728 36.4998 21.334C36.4998 22.3947 36.0784 23.4121 35.3284 24.1621C34.5779 24.9126 33.5605 25.334 32.4998 25.334C31.4391 25.334 30.4216 24.9126 29.6712 24.1621C28.9212 23.4122 28.4998 22.3947 28.4998 21.334C28.4998 20.2729 28.9212 19.2554 29.6712 18.5054C30.4216 17.7554 31.4391 17.334 32.4998 17.334C33.5605 17.334 34.5779 17.7554 35.3284 18.5054ZM31.9895 20.1019C31.4913 20.3085 31.1663 20.7947 31.1663 21.334C31.1663 22.0701 31.7637 22.6671 32.4998 22.6671C33.0391 22.6671 33.5252 22.3425 33.7315 21.8443C33.9382 21.3461 33.8239 20.7724 33.4426 20.3912C33.0614 20.0099 32.4877 19.8956 31.9895 20.1019ZM55.1661 33.3321V25.0919C56.3621 24.6691 57.2867 23.7043 57.6576 22.4914C58.0291 21.2785 57.8032 19.9615 57.0487 18.9418C56.2947 17.9222 55.1014 17.3203 53.833 17.3203C52.5647 17.3203 51.3714 17.9221 50.6169 18.9418C49.8629 19.9615 49.6366 21.2784 50.008 22.4914C50.3794 23.7044 51.3035 24.6691 52.4995 25.0919V33.3321C52.4995 33.6857 52.3589 34.0246 52.1089 34.275C51.8589 34.525 51.5196 34.6652 51.166 34.6652H45.833C45.0964 34.6652 44.4995 35.2625 44.4995 35.9987C44.4995 36.7348 45.0964 37.3322 45.833 37.3322H51.1661C52.2272 37.3322 53.2447 36.9107 53.9946 36.1603C54.7446 35.4103 55.1661 34.3928 55.1661 33.3321ZM53.8331 19.9984C54.3723 19.9984 54.8585 20.3234 55.0647 20.8216C55.271 21.3198 55.1571 21.893 54.7759 22.2747C54.3942 22.656 53.821 22.7698 53.3227 22.5636C52.8245 22.3573 52.4995 21.8712 52.4995 21.3319C52.4995 20.5953 53.0964 19.9984 53.8331 19.9984ZM19.1664 37.3321H13.8333C12.7722 37.3321 11.7547 36.9107 11.0047 36.1603C10.2547 35.4103 9.83328 34.3928 9.83328 33.3321V25.0919C8.63728 24.6691 7.71271 23.7043 7.34173 22.4914C6.9703 21.2784 7.19619 19.9615 7.95066 18.9418C8.70472 17.9221 9.89798 17.3203 11.1663 17.3203C12.4347 17.3203 13.628 17.9222 14.3824 18.9418C15.1365 19.9615 15.3628 21.2785 14.9914 22.4914C14.6199 23.7043 13.6958 24.6691 12.4998 25.0919V33.3321C12.4998 34.0683 13.0967 34.6652 13.8333 34.6652H19.1664C19.903 34.6652 20.4999 35.2625 20.4999 35.9987C20.4999 36.7348 19.903 37.3321 19.1664 37.3321ZM12.3984 20.8216C12.1918 20.3234 11.7056 19.9984 11.1663 19.9984C10.4302 19.9984 9.83325 20.5953 9.83325 21.3319C9.83325 21.8712 10.1578 22.3573 10.656 22.5636C11.1542 22.7698 11.7279 22.656 12.1092 22.2747C12.4904 21.893 12.6047 21.3198 12.3984 20.8216Z" fill="#00AEEF"/>
</svg>
