<?xml version="1.0" encoding="UTF-8" standalone="no"?><!DOCTYPE svg PUBLIC "-//W3C//DTD SVG 1.1//EN" "http://www.w3.org/Graphics/SVG/1.1/DTD/svg11.dtd"><svg width="100%" height="100%" viewBox="0 0 91 91" version="1.1" xmlns="http://www.w3.org/2000/svg" xmlns:xlink="http://www.w3.org/1999/xlink" xml:space="preserve" xmlns:serif="http://www.serif.com/" style="fill-rule:evenodd;clip-rule:evenodd;stroke-linejoin:round;stroke-miterlimit:2;"><path d="M72.789,61.954c4.405,-6.557 6.758,-14.281 6.758,-22.18c0,-21.819 -17.954,-39.774 -39.773,-39.774c-21.819,0 -39.774,17.955 -39.774,39.774c0,21.819 17.955,39.773 39.774,39.773c7.899,0 15.623,-2.353 22.18,-6.759l15.039,15.039c1.436,1.436 3.386,2.244 5.417,2.244c4.202,0 7.661,-3.459 7.661,-7.662c0,-2.031 -0.808,-3.981 -2.244,-5.417l-15.038,-15.038Zm-32.98,8.4c-16.756,0 -30.545,-13.788 -30.545,-30.545c0,-16.757 13.789,-30.545 30.545,-30.545c16.757,0 30.546,13.788 30.546,30.545c-0.019,16.75 -13.796,30.527 -30.546,30.545Z" style="fill:#fff;fill-rule:nonzero;"/></svg>