<?xml version="1.0" encoding="UTF-8" standalone="no"?><!DOCTYPE svg PUBLIC "-//W3C//DTD SVG 1.1//EN" "http://www.w3.org/Graphics/SVG/1.1/DTD/svg11.dtd"><svg width="100%" height="100%" viewBox="0 0 512 512" version="1.1" xmlns="http://www.w3.org/2000/svg" xmlns:xlink="http://www.w3.org/1999/xlink" xml:space="preserve" xmlns:serif="http://www.serif.com/" style="fill-rule:evenodd;clip-rule:evenodd;stroke-linecap:round;stroke-linejoin:round;"><path d="M85.57,446.25l340.86,0c17.553,-0.003 31.994,-14.447 31.994,-32c0,-5.295 -1.314,-10.508 -3.824,-15.17l-170.42,-316.5c-12.09,-22.44 -44.27,-22.44 -56.36,0l-170.42,316.5c-2.51,4.662 -3.824,9.875 -3.824,15.17c-0,17.553 14.441,31.997 31.994,32Z" style="fill:none;fill-rule:nonzero;stroke:#00aeef;stroke-width:32px;"/><path d="M250.26,195.39l5.74,122l5.73,-121.95c0.004,-0.087 0.006,-0.173 0.006,-0.26c-0,-3.149 -2.591,-5.74 -5.74,-5.74c-0.019,-0 -0.037,-0 -0.056,0c-3.128,0.031 -5.684,2.612 -5.684,5.74c0,0.07 0.001,0.14 0.004,0.21Z" style="fill:none;fill-rule:nonzero;stroke:#00aeef;stroke-width:32px;"/><path d="M256,397.25c-10.972,0 -20,-9.028 -20,-20c0,-10.972 9.028,-20 20,-20c10.972,0 20,9.028 20,20c0,10.972 -9.028,20 -20,20Z" style="fill:#00aeef;fill-rule:nonzero;"/></svg>