<?xml version="1.0" encoding="UTF-8" standalone="no"?><!DOCTYPE svg PUBLIC "-//W3C//DTD SVG 1.1//EN" "http://www.w3.org/Graphics/SVG/1.1/DTD/svg11.dtd"><svg width="100%" height="100%" viewBox="0 0 3785 3698" version="1.1" xmlns="http://www.w3.org/2000/svg" xmlns:xlink="http://www.w3.org/1999/xlink" xml:space="preserve" xmlns:serif="http://www.serif.com/" style="fill-rule:evenodd;clip-rule:evenodd;stroke-linejoin:round;stroke-miterlimit:2;"><g><path d="M3784.2,1848.75c-0,138.124 -186.434,253.475 -215.811,382.705c-30.343,133.453 86.872,318.068 28.793,438.472c-59.046,122.381 -277.058,145.491 -361.01,250.623c-84.357,105.626 -58.686,323.211 -164.312,407.568c-105.109,83.93 -311.42,10.803 -433.801,69.848c-120.404,58.08 -191.442,265.536 -324.895,295.833c-129.231,29.4 -282.942,-125.996 -421.066,-125.996c-138.124,0 -291.836,155.396 -421.089,125.996c-133.452,-30.32 -204.491,-237.753 -324.873,-295.833c-122.403,-59.045 -328.713,14.06 -433.822,-69.871c-105.626,-84.356 -79.955,-301.919 -164.312,-407.568c-83.931,-105.109 -301.965,-128.242 -361.01,-250.622c-58.057,-120.404 59.157,-304.997 28.815,-438.45c-29.377,-129.253 -215.811,-244.581 -215.811,-382.705c0,-138.125 186.434,-253.453 215.811,-382.706c30.342,-133.43 -86.872,-318.068 -28.793,-438.472c59.046,-122.38 277.057,-145.468 361.01,-250.6c84.357,-105.626 58.664,-323.211 164.312,-407.568c105.109,-83.93 311.42,-10.803 433.823,-69.848c120.381,-58.08 191.42,-265.514 324.873,-295.856c129.23,-29.377 282.942,126.019 421.066,126.019c138.124,-0 291.835,-155.396 421.066,-126.019c133.453,30.342 204.491,237.776 324.918,295.856c122.358,59.045 328.669,-14.06 433.8,69.87c105.626,84.357 79.955,301.92 164.312,407.568c83.93,105.11 301.942,128.22 360.988,250.578c58.079,120.404 -59.136,305.042 -28.793,438.472c29.377,129.253 215.811,244.581 215.811,382.706" style="fill:#00205c;fill-rule:nonzero;"/><g><path d="M1027.86,863.265c-6.016,1.507 -11.784,3.705 -17.303,6.593c-5.519,2.889 -9.756,5.835 -12.71,8.841c-2.817,2.865 -4.525,5.652 -5.126,8.359c-0.6,2.708 0.113,5.058 2.14,7.051c2.586,2.542 5.745,3.277 9.478,2.205c3.733,-1.071 8.806,-3.402 15.221,-6.991c6.414,-3.589 11.952,-6.287 16.614,-8.094c4.662,-1.807 9.594,-2.421 14.797,-1.842c5.202,0.579 10.214,3.239 15.037,7.979c4.682,4.603 7.499,9.811 8.45,15.624c0.95,5.813 0.169,11.745 -2.343,17.795c-2.512,6.051 -6.482,11.836 -11.909,17.358c-5.84,5.94 -12.624,10.745 -20.354,14.415c-7.73,3.67 -15.474,5.815 -23.23,6.436l-7.031,-19.898c6.996,-0.406 13.877,-2.025 20.644,-4.855c6.767,-2.829 12.109,-6.236 16.025,-10.22c3.366,-3.424 5.365,-6.716 5.996,-9.874c0.631,-3.159 -0.241,-5.906 -2.617,-8.242c-1.887,-1.855 -4.078,-2.737 -6.572,-2.646c-2.494,0.09 -5.104,0.754 -7.831,1.99c-2.726,1.236 -6.297,3.12 -10.71,5.653c-6.344,3.658 -11.778,6.39 -16.302,8.196c-4.523,1.806 -9.351,2.453 -14.484,1.943c-5.132,-0.511 -10.075,-3.102 -14.827,-7.773c-4.403,-4.328 -7.096,-9.312 -8.08,-14.951c-0.984,-5.64 -0.272,-11.467 2.137,-17.482c2.408,-6.015 6.395,-11.853 11.96,-17.514c4.946,-5.032 10.558,-9.273 16.834,-12.722c6.277,-3.449 12.493,-5.859 18.649,-7.228l7.447,19.894Z" style="fill:#00aeef;fill-rule:nonzero;"/><path d="M1044.36,808.613l60.066,-50.31l12.365,14.763l-42.26,35.396l14.347,17.129l37.978,-31.809l12.365,14.762l-37.978,31.81l14.631,17.467l43.499,-36.434l12.365,14.762l-61.305,51.348l-66.073,-78.884Z" style="fill:#00aeef;fill-rule:nonzero;"/><path d="M1139.46,731.827l19.083,-13.239l47.093,67.877l36.233,-25.138l11.564,16.668l-55.317,38.377l-58.656,-84.545Z" style="fill:#00aeef;fill-rule:nonzero;"/><path d="M1226.01,673.62l20.102,-11.635l41.384,71.501l38.168,-22.091l10.162,17.557l-58.27,33.726l-51.546,-89.058Z" style="fill:#00aeef;fill-rule:nonzero;"/><path d="M1360.8,600.264c9.351,-4.293 18.818,-6.104 28.399,-5.434c9.581,0.67 18.262,3.667 26.044,8.991c7.782,5.324 13.737,12.484 17.866,21.479c4.13,8.996 5.687,18.202 4.671,27.618c-1.015,9.416 -4.381,17.997 -10.099,25.744c-5.717,7.747 -13.252,13.766 -22.604,18.059c-9.352,4.293 -18.828,6.082 -28.43,5.368c-9.601,-0.715 -18.293,-3.734 -26.075,-9.058c-7.781,-5.324 -13.757,-12.529 -17.927,-21.613c-4.13,-8.996 -5.676,-18.179 -4.641,-27.551c1.036,-9.371 4.401,-17.898 10.094,-25.58c5.694,-7.681 13.261,-13.689 22.702,-18.023Zm8.73,18.314c-5.166,2.371 -9.372,5.893 -12.62,10.564c-3.247,4.672 -5.119,9.872 -5.617,15.6c-0.498,5.728 0.5,11.308 2.994,16.741c2.535,5.522 6.159,9.951 10.871,13.287c4.713,3.336 9.887,5.329 15.522,5.977c5.635,0.648 11.036,-0.214 16.201,-2.585c5.166,-2.371 9.306,-5.862 12.419,-10.472c3.114,-4.611 4.887,-9.792 5.32,-15.544c0.433,-5.752 -0.618,-11.389 -3.153,-16.911c-2.494,-5.433 -6.053,-9.838 -10.676,-13.215c-4.624,-3.377 -9.698,-5.388 -15.224,-6.032c-5.526,-0.645 -10.872,0.219 -16.037,2.59Z" style="fill:#00aeef;fill-rule:nonzero;"/><path d="M1543.53,534.524c10.098,-2.824 19.699,-3.244 28.801,-1.261c9.102,1.983 16.897,6.113 23.384,12.389c6.486,6.276 11.075,14.227 13.767,23.854c2.692,9.627 2.845,18.819 0.46,27.575c-2.385,8.757 -7.002,16.357 -13.85,22.8c-6.848,6.443 -15.415,11.103 -25.703,13.979l-41.197,11.519l-27.708,-99.099l42.046,-11.756Zm23.01,80.112c5.474,-1.531 10.043,-4.208 13.706,-8.03c3.663,-3.823 6.075,-8.389 7.235,-13.7c1.161,-5.311 0.91,-10.939 -0.752,-16.885c-1.663,-5.946 -4.451,-10.916 -8.366,-14.909c-3.915,-3.993 -8.477,-6.661 -13.686,-8.003c-5.209,-1.342 -10.644,-1.221 -16.307,0.362l-19.254,5.384l17.18,61.441l20.244,-5.66Z" style="fill:#00aeef;fill-rule:nonzero;"/><path d="M1635.28,511.495l77.215,-13.293l3.267,18.978l-54.325,9.353l3.79,22.02l48.821,-8.405l3.267,18.978l-48.82,8.404l3.865,22.455l55.92,-9.627l3.267,18.978l-78.809,13.567l-17.458,-101.408Z" style="fill:#00aeef;fill-rule:nonzero;"/><path d="M1885.46,517.955c-3.662,-4.098 -7.907,-7.271 -12.735,-9.517c-4.828,-2.247 -9.642,-3.292 -14.441,-3.138c-5.779,0.187 -11.023,1.778 -15.73,4.773c-4.708,2.996 -8.354,6.986 -10.939,11.972c-2.585,4.986 -3.78,10.467 -3.588,16.441c0.193,5.975 1.741,11.392 4.643,16.25c2.902,4.858 6.799,8.654 11.692,11.389c4.893,2.734 10.229,4.008 16.008,3.822c4.603,-0.149 9.245,-1.402 13.924,-3.759c4.68,-2.357 8.82,-5.457 12.422,-9.299l14.143,14.399c-5.302,5.858 -11.597,10.571 -18.884,14.14c-7.288,3.569 -14.654,5.474 -22.098,5.714c-10.089,0.325 -19.322,-1.706 -27.7,-6.093c-8.378,-4.387 -15.049,-10.569 -20.012,-18.547c-4.964,-7.979 -7.607,-16.963 -7.93,-26.954c-0.319,-9.893 1.792,-18.932 6.332,-27.119c4.54,-8.187 10.923,-14.717 19.15,-19.591c8.226,-4.874 17.432,-7.475 27.619,-7.804c7.444,-0.24 14.84,1.066 22.188,3.917c7.347,2.852 13.653,6.84 18.917,11.965l-12.981,17.039Z" style="fill:#00aeef;fill-rule:nonzero;"/><path d="M1983.24,487.801c10.265,0.726 19.438,3.683 27.52,8.873c8.082,5.189 14.257,11.987 18.526,20.394c4.268,8.407 6.053,17.547 5.355,27.42c-0.698,9.874 -3.754,18.696 -9.167,26.468c-5.412,7.771 -12.486,13.681 -21.222,17.73c-8.735,4.049 -18.235,5.71 -28.499,4.984c-10.265,-0.725 -19.436,-3.707 -27.515,-8.945c-8.078,-5.238 -14.252,-12.061 -18.521,-20.468c-4.268,-8.407 -6.05,-17.596 -5.344,-27.567c0.698,-9.874 3.752,-18.672 9.161,-26.394c5.409,-7.723 12.455,-13.586 21.138,-17.589c8.684,-4.004 18.206,-5.639 28.568,-4.906Zm-1.138,20.256c-5.669,-0.401 -11.05,0.668 -16.142,3.206c-5.092,2.538 -9.231,6.199 -12.419,10.985c-3.187,4.785 -4.992,10.159 -5.414,16.122c-0.428,6.061 0.623,11.686 3.154,16.875c2.531,5.19 6.113,9.422 10.744,12.697c4.632,3.275 9.782,5.113 15.452,5.514c5.67,0.401 10.977,-0.673 15.922,-3.221c4.946,-2.549 8.989,-6.242 12.131,-11.079c3.142,-4.838 4.928,-10.287 5.356,-16.348c0.422,-5.963 -0.584,-11.536 -3.017,-16.718c-2.434,-5.183 -5.919,-9.384 -10.456,-12.603c-4.537,-3.219 -9.641,-5.029 -15.311,-5.43Z" style="fill:#00aeef;fill-rule:nonzero;"/><path d="M2149.57,512.031l21.681,4.017l-18.749,101.178l-20.813,-3.857l-36.946,-74.123l-12.053,65.043l-21.826,-4.045l18.749,-101.177l20.814,3.857l37.037,74.438l12.106,-65.331Z" style="fill:#00aeef;fill-rule:nonzero;"/><path d="M2217.87,527.731l70.912,20.945l-5.595,18.427l-48.497,-14.325l-7.162,24.249l44.549,13.158l-5.497,18.609l-44.549,-13.158l-11.035,37.359l-22.274,-6.579l29.148,-98.685Z" style="fill:#00aeef;fill-rule:nonzero;"/><path d="M2321.72,560.483l21.792,8.036l-35.603,96.545l-21.791,-8.036l35.602,-96.545Z" style="fill:#00aeef;fill-rule:nonzero;"/><path d="M2411.97,710.147l1.066,-21.538l-43.217,-20.018l-15.738,14.742l-21.742,-10.07l83.798,-74.588l21.742,10.071l-3.367,111.843l-22.542,-10.442Zm-27.368,-55.283l29.478,13.654l2.133,-43.077l-31.611,29.423Z" style="fill:#00aeef;fill-rule:nonzero;"/><path d="M2570.93,681.805l18.87,11.407l-53.234,88.06l-18.115,-10.951l-8.424,-82.39l-34.222,56.61l-18.996,-11.484l53.234,-88.06l18.115,10.951l8.398,82.718l34.374,-56.861Z" style="fill:#00aeef;fill-rule:nonzero;"/><path d="M2625.45,717.613l69.28,52.42l-9.401,12.425l-86.814,19.478l46.539,35.213l-11.825,15.385l-71.391,-54.016l9.491,-12.544l86.842,-19.271l-44.429,-33.617l11.708,-15.473Z" style="fill:#00aeef;fill-rule:nonzero;"/><path d="M2712.51,924.227l7.708,-20.14l-34.855,-32.458l-19.541,9.12l-17.535,-16.329l102.83,-44.85l17.535,16.33l-37.961,105.258l-18.181,-16.931Zm-8.83,-61.051l23.775,22.139l15.415,-40.28l-39.19,18.141Z" style="fill:#00aeef;fill-rule:nonzero;"/></g><path d="M1505.04,89.83l-5.951,-0l-5.817,1.257c-37.328,7.996 -72.521,46.109 -132.735,123.257c-50.151,64.301 -101.965,130.713 -175.339,166.108c-66.659,32.162 -142.751,34.857 -208.804,34.857c-10.039,0 -20.168,-0.067 -30.252,-0.157l-3.504,-0.022c-10.646,-0.113 -21.404,-0.18 -32.094,-0.18c-92.689,-0 -123.122,9.433 -142.19,24.683c-27.827,22.212 -41.909,68.972 -62.93,165.367c-17.496,80.359 -35.621,163.436 -87.21,228.029c-51.252,64.211 -127.995,100.123 -202.178,134.868c-89.747,41.998 -132.442,66.209 -148.119,98.73l-0.673,1.438c-12.78,28.568 -9.254,67.265 15.788,172.599c19.136,80.494 38.922,163.751 20.371,245.3c-17.9,78.765 -70.814,143.717 -121.976,206.49c-63.358,77.732 -91.589,118.742 -91.589,156.294c-0,37.552 28.254,78.54 91.544,156.227c51.207,62.841 104.121,127.771 122.043,206.558c18.507,81.504 -1.257,164.761 -20.393,245.255c-22.324,93.947 -29.893,141.156 -15.766,172.689l0.314,0.696l0.36,0.719c15.654,32.453 58.349,56.709 148.096,98.731c74.183,34.722 150.904,70.656 202.178,134.867c51.567,64.548 69.669,147.625 87.187,227.962c21.044,96.462 35.126,143.2 62.953,165.435c19.136,15.227 49.59,24.66 142.347,24.66c10.601,-0 21.247,-0.09 31.937,-0.18c11.23,-0.09 22.437,-0.18 33.554,-0.18c66.143,0 142.302,2.696 208.984,34.857c73.396,35.418 125.21,101.83 175.294,166.041c61.314,78.585 94.688,114.992 130.466,123.122l6.154,1.393l6.288,-0c38.158,-0 87.03,-22.639 151.892,-54.621c74.879,-36.901 152.206,-75.037 236.833,-75.037c84.626,0 161.976,38.136 236.743,75.014c67.041,33.038 113.711,54.711 150.297,54.711c5.795,-0 8.647,-0.517 9.141,-0.584l2.56,-0.337l2.538,-0.561c35.688,-8.131 69.062,-44.537 130.309,-123.077c50.151,-64.256 101.965,-130.668 175.339,-166.064c66.637,-32.161 142.751,-34.834 208.849,-34.834c11.162,-0 22.392,0.09 33.621,0.18c10.736,0.089 21.426,0.179 32.095,0.179c92.711,0 123.166,-9.455 142.234,-24.682c27.805,-22.213 41.886,-68.95 62.908,-165.323c17.541,-80.404 35.666,-163.503 87.255,-228.074c51.252,-64.211 127.972,-100.145 202.178,-134.867c89.769,-42.044 132.442,-66.278 148.096,-98.731l0.359,-0.741l0.337,-0.719c12.78,-28.546 9.253,-67.266 -15.789,-172.577c-19.135,-80.516 -38.922,-163.75 -20.37,-245.322c17.9,-78.787 70.814,-143.74 121.998,-206.536c63.336,-77.754 91.567,-118.719 91.567,-156.249c-0,-37.552 -28.254,-78.54 -91.567,-156.226c-51.184,-62.841 -104.098,-127.793 -122.021,-206.558c-18.506,-81.505 1.258,-164.739 20.371,-245.255c25.064,-105.356 28.591,-144.054 15.789,-172.667l-0.337,-0.741l-0.337,-0.718c-15.677,-32.454 -58.349,-56.688 -148.074,-98.686c-74.205,-34.722 -150.926,-70.657 -202.2,-134.846c-51.589,-64.593 -69.692,-147.669 -87.232,-228.029c-21.022,-96.417 -35.104,-143.155 -62.931,-165.389c-19.113,-15.25 -49.568,-24.683 -142.302,-24.683c-10.646,-0 -21.359,0.09 -32.072,0.18l-3.099,0.022c-10.152,0.09 -20.303,0.18 -30.387,0.18c-66.143,-0 -142.257,-2.695 -208.939,-34.88c-73.374,-35.395 -125.21,-101.807 -175.317,-166.041c-61.313,-78.607 -94.688,-114.991 -130.465,-123.121l-6.154,-1.393l-6.289,0c-38.136,0 -87.007,22.639 -151.869,54.621c-74.857,36.901 -152.207,75.036 -236.833,75.036c-84.627,0 -161.976,-38.113 -236.766,-74.991c-67.13,-33.105 -113.733,-54.733 -150.297,-54.733m0,56.148c26.233,-0 81.258,27.131 125.458,48.916c76.81,37.889 163.885,80.809 261.605,80.809c97.698,-0 184.772,-42.92 261.583,-80.809c44.177,-21.763 99.112,-48.849 127.029,-48.849l0.09,0c22.325,5.076 70.095,66.3 98.641,102.886c51.567,66.098 110.006,140.999 195.193,182.1c77.328,37.327 160.988,40.449 233.33,40.449c11.297,-0 22.661,-0.113 34.025,-0.202c10.534,-0.09 21.067,-0.18 31.533,-0.18c79.82,-0 101.471,7.771 107.266,12.397c16.956,13.543 33.98,91.567 43.121,133.498c18.013,82.605 38.451,176.26 98.192,251.095c59.45,74.43 145.963,114.946 222.257,150.656c39.034,18.282 111.712,52.285 121.325,72.252c8.714,19.449 -9.411,95.721 -19.136,136.687c-19.651,82.717 -41.931,176.484 -20.505,270.724c20.82,91.633 80.561,164.918 133.228,229.578c29.534,36.227 78.945,96.867 78.945,120.763c-0,23.897 -49.411,84.537 -78.945,120.764c-52.689,64.66 -112.408,137.944 -133.228,229.578c-21.426,94.262 0.831,188.029 20.505,270.746c9.725,40.966 27.85,117.238 19.158,136.642c-9.635,19.989 -82.313,53.993 -121.347,72.274c-76.317,35.733 -162.83,76.249 -222.257,150.679c-59.764,74.835 -80.179,168.467 -98.214,251.117c-9.141,41.909 -26.165,119.933 -43.122,133.476c-5.794,4.649 -27.423,12.397 -107.175,12.397c-10.511,0 -21.045,-0.09 -31.623,-0.18c-11.364,-0.089 -22.751,-0.179 -34.093,-0.179c-72.297,-0 -155.912,3.099 -233.217,40.404c-85.233,41.123 -143.672,116.024 -195.238,182.1c-28.524,36.586 -76.294,97.81 -98.484,102.863c-0.023,-0 -0.562,0.09 -1.797,0.09c-26.232,-0 -81.257,-27.131 -125.457,-48.916c-76.811,-37.867 -163.885,-80.809 -261.583,-80.809c-97.72,0 -184.772,42.942 -261.605,80.809c-44.155,21.763 -99.091,48.848 -127.007,48.848l-0.113,0c-22.302,-5.075 -70.073,-66.299 -98.618,-102.885c-51.567,-66.098 -110.006,-140.977 -195.194,-182.078c-77.349,-37.327 -161.01,-40.449 -233.374,-40.449c-11.297,0 -22.639,0.09 -34.003,0.18c-10.511,0.09 -21.044,0.18 -31.488,0.18c-79.865,-0 -101.493,-7.771 -107.288,-12.398c-16.979,-13.543 -33.981,-91.566 -43.144,-133.475c-18.012,-82.628 -38.428,-176.26 -98.169,-251.095c-59.45,-74.43 -145.941,-114.946 -222.257,-150.679c-39.057,-18.281 -111.712,-52.307 -121.347,-72.251c-8.715,-19.45 9.41,-95.721 19.157,-136.687c19.652,-82.717 41.932,-176.485 20.506,-270.724c-20.843,-91.634 -80.562,-164.918 -133.251,-229.601c-29.512,-36.204 -78.922,-96.844 -78.922,-120.741c0,-23.896 49.388,-84.536 78.922,-120.763c52.689,-64.66 112.431,-137.945 133.251,-229.578c21.426,-94.24 -0.854,-188.007 -20.506,-270.724c-9.747,-40.988 -27.849,-117.26 -19.157,-136.665c9.635,-19.989 82.29,-54.014 121.347,-72.274c76.316,-35.732 162.807,-76.226 222.257,-150.679c59.741,-74.834 80.179,-168.467 98.192,-251.094c9.14,-41.932 26.165,-119.955 43.121,-133.498c5.795,-4.627 27.423,-12.375 107.131,-12.375c10.533,-0 21.089,0.067 31.667,0.18c11.41,0.089 22.841,0.179 34.183,0.179c72.274,0 155.868,-3.122 233.195,-40.426c85.188,-41.101 143.627,-116.002 195.171,-182.1c28.545,-36.564 76.339,-97.81 100.28,-102.953" style="fill:#00aeef;fill-rule:nonzero;"/><g><g><path d="M473.582,1165.29l214.215,-0l0,83.053l-131.623,0l0,244.994l113.237,-0l-0,83.351l-113.237,0l0,89.603l131.623,-0l0,83.054l-214.215,-0l-0,-584.055Z" style="fill:#fff;fill-rule:nonzero;"/><path d="M980.519,1578.18l0,57.75c0,81.764 -39.594,122.745 -118.781,122.944c-78.993,-0 -118.49,-40.982 -118.49,-122.944l0,-357.22c0,-81.764 39.497,-122.645 118.49,-122.645c79.187,-0 118.781,40.881 118.781,122.645l0,78.589l-82.592,-0l-0,-78.589c-0,-26.196 -11.966,-39.393 -35.897,-39.592l-0.584,0c-23.737,0 -35.605,13.198 -35.605,39.592l-0,357.22c-0,26.395 11.965,39.592 35.897,39.592c24.126,0 36.189,-13.197 36.189,-39.592l-0,-57.75l82.592,-0Z" style="fill:#fff;fill-rule:nonzero;"/><path d="M1279.08,1635.93c0,81.764 -39.594,122.745 -118.781,122.944c-78.993,-0 -118.49,-40.982 -118.49,-122.944l0,-357.22c0,-81.764 39.497,-122.645 118.49,-122.645c79.187,-0 118.781,40.881 118.781,122.645l0,357.22Zm-82.592,-357.22c-0,-26.196 -11.966,-39.393 -35.897,-39.592l-0.584,0c-23.737,0 -35.605,13.198 -35.605,39.592l-0,357.22c-0,26.395 11.965,39.592 35.897,39.592c24.126,0 36.189,-13.197 36.189,-39.592l-0,-357.22Z" style="fill:#fff;fill-rule:nonzero;"/><path d="M1528.9,1565.38l96.017,-400.086l82.593,-0l-0,584.055l-79.09,-0l-0,-327.75l-70.627,327.75l-56.035,-0l-72.67,-327.75l0,327.75l-79.966,-0l0,-584.055l82.593,-0l97.185,400.086Z" style="fill:#fff;fill-rule:nonzero;"/><path d="M1963.17,1565.38l96.017,-400.086l82.593,-0l-0,584.055l-79.091,-0l0,-327.75l-70.627,327.75l-56.034,-0l-72.67,-327.75l0,327.75l-79.966,-0l0,-584.055l82.593,-0l97.185,400.086Z" style="fill:#fff;fill-rule:nonzero;"/><path d="M2217.66,1165.29l214.215,-0l0,83.053l-131.623,0l0,244.994l113.237,-0l-0,83.351l-113.237,0l0,89.603l131.623,-0l0,83.054l-214.215,-0l-0,-584.055Z" style="fill:#fff;fill-rule:nonzero;"/><path d="M2493.16,1165.29l120.241,-0c73.35,0.198 110.026,41.179 110.026,122.943l-0,165.512c-0,51.4 -21.694,85.237 -65.082,101.51l92.807,194.09l-90.472,-0l-74.421,-179.206l-10.507,1.489l0,177.717l-82.592,-0l-0,-584.055Zm82.592,83.053l0,244.994l18.97,-0c11.48,-0 19.36,-0.794 23.64,-2.382c14.981,-6.152 22.472,-18.555 22.472,-37.21l0,-165.512c0,-26.593 -11.966,-39.89 -35.897,-39.89l-29.185,0Z" style="fill:#fff;fill-rule:nonzero;"/><path d="M3029.28,1578.18l-0,57.75c-0,81.764 -39.594,122.745 -118.782,122.944c-78.993,-0 -118.489,-40.982 -118.489,-122.944l-0,-357.22c-0,-81.764 39.496,-122.645 118.489,-122.645c79.188,-0 118.782,40.881 118.782,122.645l-0,78.589l-82.593,-0l0,-78.589c0,-26.196 -11.965,-39.393 -35.897,-39.592l-0.584,0c-23.736,0 -35.605,13.198 -35.605,39.592l0,357.22c0,26.395 11.966,39.592 35.897,39.592c24.126,0 36.189,-13.197 36.189,-39.592l0,-57.75l82.593,-0Z" style="fill:#fff;fill-rule:nonzero;"/><path d="M3096.41,1165.29l214.215,-0l-0,83.053l-131.623,0l0,244.994l113.237,-0l-0,83.351l-113.237,0l0,89.603l131.623,-0l-0,83.054l-214.215,-0l-0,-584.055Z" style="fill:#fff;fill-rule:nonzero;"/></g><g><path d="M822.58,2348.27l-0,62.383c-0,28.078 12.832,42.117 38.496,42.117c25.458,-0 38.187,-14.039 38.187,-42.117l-0,-11.4c-0,-29.977 -27.424,-65.022 -82.271,-105.133c-54.848,-39.899 -82.271,-88.455 -82.271,-145.666l-0,-117.799c-0,-86.978 42.015,-130.466 126.045,-130.466c84.237,-0 126.356,43.488 126.356,130.466l-0,83.599l-87.859,0l-0,-83.599c-0,-27.867 -12.729,-41.906 -38.187,-42.117l-0.62,0c-25.251,0 -37.876,14.039 -37.876,42.117l-0,115.899c-0,27.656 27.423,61.539 82.271,101.65c54.847,39.9 82.271,87.716 82.271,143.449l-0,19c-0,87.189 -42.015,130.783 -126.046,130.783c-84.237,-0.211 -126.355,-43.805 -126.355,-130.783l-0,-62.383l87.859,0Z" style="fill:#47d67c;fill-rule:nonzero;"/><path d="M1157,1910l227.875,0l0,88.35l-140.015,-0l-0,260.616l120.457,-0l-0,88.666l-120.457,-0l-0,95.316l140.015,0l0,88.35l-227.875,-0l0,-621.298Z" style="fill:#47d67c;fill-rule:nonzero;"/><path d="M1668.08,2258.02l123.561,-0l0,152.632c0,86.978 -42.118,130.572 -126.355,130.783c-84.031,0 -126.046,-43.594 -126.046,-130.783l0,-379.998c0,-86.978 42.015,-130.466 126.046,-130.466c84.237,-0 126.355,43.488 126.355,130.466l0,83.599l-87.859,0l0,-83.599c0,-27.867 -12.729,-41.906 -38.186,-42.117l-0.621,0c-25.25,0 -37.876,14.039 -37.876,42.117l0,379.998c0,28.078 12.729,42.117 38.187,42.117c25.664,-0 38.496,-14.039 38.496,-42.117l0,-63.966l-35.702,-0l-0,-88.666Z" style="fill:#47d67c;fill-rule:nonzero;"/><path d="M2210.82,2410.65c0,86.978 -42.118,130.572 -126.355,130.783c-84.031,0 -126.046,-43.594 -126.046,-130.783l0,-500.648l87.86,0l-0,500.648c-0,28.078 12.728,42.117 38.186,42.117c25.664,-0 38.496,-14.039 38.496,-42.117l0,-500.648l87.859,0l0,500.648Z" style="fill:#47d67c;fill-rule:nonzero;"/><path d="M2383.8,1910l127.908,0c78.028,0.211 117.042,43.806 117.042,130.783l-0,176.066c-0,54.678 -23.078,90.672 -69.232,107.983l98.725,206.466l-96.241,-0l-79.167,-190.633l-11.176,1.584l-0,189.049l-87.859,-0l-0,-621.298Zm87.859,88.35l-0,260.616l20.179,-0c12.212,-0 20.594,-0.845 25.147,-2.534c15.937,-6.544 23.906,-19.739 23.906,-39.583l-0,-176.066c-0,-28.289 -12.729,-42.433 -38.187,-42.433l-31.045,-0Z" style="fill:#47d67c;fill-rule:nonzero;"/><path d="M3049.48,2410.65c0,86.978 -42.118,130.572 -126.356,130.783c-84.03,0 -126.045,-43.594 -126.045,-130.783l0,-379.998c0,-86.978 42.015,-130.466 126.045,-130.466c84.238,-0 126.356,43.488 126.356,130.466l0,379.998Zm-87.859,-379.998c-0,-27.867 -12.729,-41.906 -38.186,-42.117l-0.621,0c-25.251,0 -37.876,14.039 -37.876,42.117l0,379.998c0,28.078 12.729,42.117 38.186,42.117c25.665,-0 38.497,-14.039 38.497,-42.117l-0,-379.998Z" style="fill:#47d67c;fill-rule:nonzero;"/></g></g><g><path d="M1410.75,2826.7c-14.13,-0 -28.435,9.682 -28.435,28.185c0,18.507 14.305,28.19 28.435,28.19c14.129,-0 28.434,-9.683 28.434,-28.19c0,-18.503 -14.305,-28.185 -28.434,-28.185" style="fill:#fff;fill-rule:nonzero;"/><path d="M1435.57,2895.09l-49.642,0l-0,172.12l49.642,0l0,-172.12Z" style="fill:#fff;fill-rule:nonzero;"/><path d="M1551.61,2893.12c-18.279,-0 -33.865,6.002 -49.545,19.266l-1.522,-12.746l-0.502,-4.223l-44.836,0l-0,171.794l49.316,-0l0,-87.539c0,-23.102 15.725,-40.52 36.578,-40.52c25.281,-0 34.286,19.915 34.286,38.549l-0,89.51l49.643,-0l-0,-89.837c-0,-25.423 -7.361,-46.884 -21.291,-62.058c-13.142,-14.313 -31.653,-22.196 -52.127,-22.196" style="fill:#fff;fill-rule:nonzero;"/><path d="M1775.35,2981.31c0,28.112 -21.212,42.821 -42.164,42.821c-23.864,-0 -41.18,-18.01 -41.18,-42.821c-0,-25.02 16.932,-42.491 41.18,-42.491c24.036,0 42.164,18.267 42.164,42.491m52.267,-153.209l-49.639,0l-0,81.366c-13.791,-11.996 -35.22,-17.663 -48.407,-17.663c-25.321,0 -46.852,7.871 -62.266,22.771c-16.317,15.766 -24.942,38.843 -24.942,66.735c-0,53.539 35.444,89.51 88.196,89.51c14.729,-0 34.11,-3.505 48.798,-18.712l1.277,10.865l0.498,4.232l46.485,-0l-0,-239.104Z" style="fill:#fff;fill-rule:nonzero;"/><path d="M1973.35,2981.64c-0,21.315 -12.122,42.821 -39.21,42.821c-27.084,0 -39.206,-21.506 -39.206,-42.821c-0,-20.78 12.269,-43.151 39.206,-43.151c24.546,-0 39.21,21.943 39.21,43.151m-39.537,-89.179c-26.01,0 -48.378,9.103 -64.678,26.329c-15.378,16.247 -23.844,38.569 -23.844,62.85c-0,24.497 8.393,46.86 23.64,62.973c16.223,17.145 38.774,26.207 65.209,26.207c26.455,-0 49.059,-9.058 65.367,-26.199c15.354,-16.137 23.812,-38.504 23.812,-62.981c-0,-24.223 -8.65,-46.554 -24.362,-62.879c-16.325,-16.961 -39.459,-26.3 -65.144,-26.3" style="fill:#fff;fill-rule:nonzero;"/><path d="M2136.02,3021.85l-1.726,-5.284l-4.97,2.489c-5.532,2.767 -11.975,4.419 -17.23,4.419c-10.616,0 -16.223,-6.292 -16.223,-18.193l0,-65.152l44.984,0l-0,-44.061l-44.657,0l-0,-46.505l-5.3,0.563l-40.059,4.268l-4.284,0.457l0,41.217l-30.209,0l-0,44.061l30.209,0l0,65.152c0,40.046 22.318,63.956 59.7,63.956c1.118,-0 2.249,-0.021 3.391,-0.066c12.685,-0.342 22.775,-2.435 34.763,-7.234l4.17,-1.668l-1.396,-4.268l-11.163,-34.151Z" style="fill:#fff;fill-rule:nonzero;"/><path d="M2207.58,2957.8c6.438,-14.032 20.127,-21.943 38.475,-21.943c11.624,0 30.858,2.999 36.203,21.943l-74.678,-0Zm37.165,-66.987c-26.794,-0 -49.655,8.751 -66.118,25.3c-15.933,16.023 -24.705,38.823 -24.705,64.209c-0,27.035 8.637,49.872 24.982,66.041c16.602,16.427 40.394,25.109 68.795,25.109c28.59,0 56.588,-10.628 73.063,-27.736l3.281,-3.407l-3.367,-3.326l-25.61,-25.284l-3.448,-3.403l-3.366,3.484c-6.386,6.614 -22.539,13.64 -39.896,13.64c-21.943,0 -37.639,-9.396 -42.355,-24.893l124.868,0l0.404,-4.345c3.19,-34.065 -3.921,-61.728 -20.564,-79.999c-15.129,-16.61 -37.937,-25.39 -65.964,-25.39" style="fill:#fff;fill-rule:nonzero;"/><path d="M2401.89,2828.1l-49.312,-0l0,241.078l49.312,-0l0,-241.078Z" style="fill:#fff;fill-rule:nonzero;"/></g></g></svg>